<?xml version="1.0" encoding="utf-8"?>
<!-- Generator: Adobe Illustrator 25.2.1, SVG Export Plug-In . SVG Version: 6.00 Build 0)  -->
<svg version="1.1" xmlns="http://www.w3.org/2000/svg" xmlns:xlink="http://www.w3.org/1999/xlink" x="0px" y="0px"
	 viewBox="0 0 273.7 246.6" style="enable-background:new 0 0 273.7 246.6;" xml:space="preserve">
<style type="text/css">
	.st0{fill:#FFFFFF;}
</style>
<g id="BACKGROUND">
</g>
<g id="OBJECTS">
	<g>
		<g>
			<path class="st0" d="M219.1,48.7l-8,64.5l-9.9-12.5c-12.2,14.2-47.4,57.2-104.5,43.9c-22.1-5.1-35.5-16.3-43.4-28.7
				c11.2,36.8,45.4,63.6,85.9,63.6c49.6,0,89.8-40.2,89.8-89.8C229,75,225.4,61,219.1,48.7z"/>
			<g>
				<path class="st0" d="M49.5,89.5c2.5,4.6,5.7,8.5,9.5,11.7V49.5C52.9,61.5,49.5,75.1,49.5,89.5z"/>
				<path class="st0" d="M65.8,38.2v67.5c4.3,2.3,9.1,3.8,14.3,4.5v-88C74.7,27,69.9,32.3,65.8,38.2z"/>
				<path class="st0" d="M86.9,16.9v93.9c4.6,0,9.4-0.5,14.3-1.6V8.4C96.1,10.8,91.3,13.6,86.9,16.9z"/>
				<path class="st0" d="M108,5.6v101.6c4.7-1.5,9.5-3.6,14.3-6.2V1.6C117.4,2.5,112.6,3.9,108,5.6z"/>
				<path class="st0" d="M139.2,0c-3.4,0-6.8,0.2-10.2,0.6V97c4.8-3,9.5-6.6,14.3-10.7V0.1C142,0,140.6,0,139.2,0z"/>
				<path class="st0" d="M150.2,0.7v79.4c4.8-4.7,9.6-10,14.3-15.8V54.1l-10-12.7l10,1.1v-39C159.8,2.2,155.1,1.3,150.2,0.7z"/>
				<path class="st0" d="M171.2,5.9v37.5l14.3,1.6V12.9C181,10.1,176.3,7.8,171.2,5.9z"/>
				<path class="st0" d="M192.3,17.4v28.3l14.3,1.6V30.5C202.4,25.7,197.6,21.3,192.3,17.4z"/>
				<path class="st0" d="M213.4,39.3V48l5.6,0.6C217.4,45.4,215.5,42.3,213.4,39.3z"/>
			</g>
		</g>
		<g>
			<path class="st0" d="M16.7,221.7h-9L6.2,226H0l8.8-24.2h6.8l8.8,24.2h-6.2L16.7,221.7z M15.1,217.1l-3-8.9l-3,8.9H15.1z"/>
			<path class="st0" d="M31.7,207.4c1-1.9,2.5-3.3,4.3-4.4c1.9-1,4-1.6,6.3-1.6c2.9,0,5.3,0.8,7.4,2.3c2,1.5,3.4,3.6,4.1,6.2h-6.5
				c-0.5-1-1.2-1.8-2.1-2.3c-0.9-0.5-1.9-0.8-3-0.8c-1.8,0-3.3,0.6-4.4,1.9c-1.1,1.3-1.7,3-1.7,5.1s0.6,3.8,1.7,5.1
				c1.1,1.3,2.6,1.9,4.4,1.9c1.1,0,2.1-0.3,3-0.8c0.9-0.5,1.6-1.3,2.1-2.3h6.5c-0.7,2.6-2.1,4.7-4.1,6.2s-4.5,2.3-7.4,2.3
				c-2.3,0-4.4-0.5-6.3-1.6c-1.9-1-3.3-2.5-4.3-4.4c-1-1.9-1.6-4-1.6-6.4C30.2,211.4,30.7,209.3,31.7,207.4z"/>
			<path class="st0" d="M62.1,207.4c1-1.9,2.5-3.3,4.3-4.4c1.9-1,4-1.6,6.3-1.6c2.9,0,5.3,0.8,7.4,2.3c2,1.5,3.4,3.6,4.1,6.2h-6.5
				c-0.5-1-1.2-1.8-2.1-2.3c-0.9-0.5-1.9-0.8-3-0.8c-1.8,0-3.3,0.6-4.4,1.9c-1.1,1.3-1.7,3-1.7,5.1s0.6,3.8,1.7,5.1
				c1.1,1.3,2.6,1.9,4.4,1.9c1.1,0,2.1-0.3,3-0.8c0.9-0.5,1.6-1.3,2.1-2.3h6.5c-0.7,2.6-2.1,4.7-4.1,6.2s-4.5,2.3-7.4,2.3
				c-2.3,0-4.4-0.5-6.3-1.6c-1.9-1-3.3-2.5-4.3-4.4c-1-1.9-1.6-4-1.6-6.4C60.6,211.4,61.1,209.3,62.1,207.4z"/>
			<path class="st0" d="M97.2,224.6c-1.9-1.1-3.4-2.5-4.5-4.4s-1.7-4-1.7-6.4s0.6-4.5,1.7-6.4c1.1-1.9,2.6-3.4,4.5-4.4
				c1.9-1.1,4-1.6,6.3-1.6c2.3,0,4.4,0.5,6.3,1.6c1.9,1.1,3.4,2.5,4.5,4.4c1.1,1.9,1.6,4,1.6,6.4s-0.6,4.5-1.7,6.4
				c-1.1,1.9-2.6,3.4-4.5,4.4c-1.9,1.1-4,1.6-6.2,1.6C101.2,226.2,99.1,225.7,97.2,224.6z M108.1,218.9c1.2-1.3,1.7-3,1.7-5.1
				c0-2.1-0.6-3.8-1.7-5.1s-2.7-1.9-4.6-1.9c-2,0-3.5,0.6-4.7,1.9c-1.2,1.3-1.7,3-1.7,5.1c0,2.1,0.6,3.8,1.7,5.1
				c1.2,1.3,2.7,1.9,4.7,1.9C105.4,220.8,106.9,220.2,108.1,218.9z"/>
			<path class="st0" d="M129.1,201.7v14.5c0,1.4,0.4,2.6,1.1,3.3c0.7,0.8,1.8,1.2,3.1,1.2s2.4-0.4,3.2-1.2c0.7-0.8,1.1-1.9,1.1-3.3
				v-14.5h5.9v14.5c0,2.2-0.5,4-1.4,5.5c-0.9,1.5-2.2,2.6-3.7,3.4c-1.6,0.8-3.3,1.1-5.2,1.1s-3.6-0.4-5.1-1.1
				c-1.5-0.7-2.7-1.9-3.6-3.4c-0.9-1.5-1.3-3.3-1.3-5.5v-14.5H129.1z"/>
			<path class="st0" d="M173.4,226h-5.9l-9.9-14.9V226h-5.9v-24.2h5.9l9.9,15v-15h5.9V226z"/>
			<path class="st0" d="M199.2,201.7v4.7h-6.4V226h-5.9v-19.5h-6.4v-4.7H199.2z"/>
			<path class="st0" d="M212.2,201.7V226h-5.9v-24.2H212.2z"/>
			<path class="st0" d="M242.3,226h-5.9l-9.9-14.9V226h-5.9v-24.2h5.9l9.9,15v-15h5.9V226z"/>
			<path class="st0" d="M266.8,209.4c-0.4-0.8-1.1-1.4-1.9-1.8c-0.8-0.4-1.8-0.6-2.9-0.6c-1.9,0-3.4,0.6-4.6,1.9
				c-1.2,1.3-1.7,2.9-1.7,5c0,2.2,0.6,4,1.8,5.2c1.2,1.3,2.9,1.9,5,1.9c1.4,0,2.7-0.4,3.7-1.1c1-0.7,1.7-1.8,2.2-3.2h-7.5v-4.3h12.8
				v5.5c-0.4,1.5-1.2,2.8-2.2,4.1c-1,1.3-2.4,2.3-4,3.1c-1.6,0.8-3.4,1.2-5.5,1.2c-2.4,0-4.5-0.5-6.4-1.6c-1.9-1-3.3-2.5-4.4-4.4
				c-1-1.9-1.6-4-1.6-6.4c0-2.4,0.5-4.5,1.6-6.4c1-1.9,2.5-3.3,4.4-4.4c1.9-1,4-1.6,6.4-1.6c2.9,0,5.3,0.7,7.3,2.1
				c2,1.4,3.3,3.3,4,5.8H266.8z"/>
		</g>
		<g>
			<path class="st0" d="M13,235.6l-3.5,6.8v4.1H8v-4.1l-3.6-6.8h1.6l2.7,5.5l2.7-5.5H13z"/>
			<path class="st0" d="M25.4,245.9c-0.8-0.5-1.5-1.1-2-2s-0.7-1.8-0.7-2.9s0.2-2,0.7-2.9s1.1-1.5,2-2c0.8-0.5,1.8-0.7,2.8-0.7
				c1,0,1.9,0.2,2.8,0.7c0.8,0.5,1.5,1.1,2,2s0.7,1.8,0.7,2.9s-0.2,2-0.7,2.9s-1.1,1.5-2,2s-1.8,0.7-2.8,0.7
				C27.2,246.6,26.2,246.3,25.4,245.9z M30.2,244.8c0.6-0.4,1.1-0.9,1.4-1.5s0.5-1.4,0.5-2.3c0-0.9-0.2-1.6-0.5-2.3
				c-0.3-0.6-0.8-1.2-1.4-1.5s-1.3-0.5-2.1-0.5s-1.5,0.2-2.1,0.5s-1.1,0.9-1.4,1.5c-0.3,0.7-0.5,1.4-0.5,2.3c0,0.9,0.2,1.6,0.5,2.3
				s0.8,1.2,1.4,1.5c0.6,0.4,1.3,0.5,2.1,0.5C28.9,245.3,29.6,245.2,30.2,244.8z"/>
			<path class="st0" d="M45.6,235.6v6.9c0,1,0.2,1.7,0.7,2.2c0.5,0.5,1.1,0.7,2,0.7c0.8,0,1.5-0.2,2-0.7c0.5-0.5,0.7-1.2,0.7-2.2
				v-6.9h1.4v6.9c0,0.9-0.2,1.7-0.5,2.3c-0.4,0.6-0.9,1.1-1.5,1.4s-1.3,0.5-2.1,0.5s-1.5-0.2-2.1-0.5s-1.1-0.8-1.5-1.4
				c-0.4-0.6-0.5-1.4-0.5-2.3v-6.9H45.6z"/>
			<path class="st0" d="M69.2,246.5l-2.6-4.4h-1.7v4.4h-1.4v-10.9H67c0.8,0,1.5,0.1,2.1,0.4c0.6,0.3,1,0.7,1.3,1.1
				c0.3,0.5,0.4,1,0.4,1.6c0,0.7-0.2,1.4-0.6,2c-0.4,0.6-1.1,1-1.9,1.1l2.7,4.6H69.2z M64.9,240.9H67c0.8,0,1.3-0.2,1.7-0.6
				c0.4-0.4,0.6-0.9,0.6-1.5c0-0.6-0.2-1.1-0.6-1.5c-0.4-0.4-1-0.5-1.7-0.5h-2.1V240.9z"/>
			<path class="st0" d="M96.2,246.2c-0.6-0.3-1-0.6-1.3-1.1s-0.5-1-0.5-1.6h1.5c0.1,0.5,0.3,0.9,0.6,1.3c0.4,0.3,0.9,0.5,1.6,0.5
				c0.7,0,1.2-0.2,1.6-0.5c0.4-0.3,0.6-0.8,0.6-1.3c0-0.4-0.1-0.8-0.3-1c-0.2-0.3-0.5-0.5-0.9-0.6c-0.3-0.1-0.8-0.3-1.4-0.4
				c-0.7-0.2-1.3-0.4-1.7-0.6s-0.8-0.5-1.1-0.9c-0.3-0.4-0.5-0.9-0.5-1.6c0-0.6,0.2-1.1,0.5-1.6s0.7-0.8,1.3-1.1
				c0.5-0.2,1.2-0.4,1.9-0.4c1,0,1.9,0.3,2.5,0.8c0.6,0.5,1,1.2,1.1,2H100c-0.1-0.4-0.3-0.8-0.7-1.1s-0.9-0.5-1.5-0.5
				c-0.6,0-1.1,0.2-1.5,0.5c-0.4,0.3-0.6,0.7-0.6,1.3c0,0.4,0.1,0.7,0.3,1c0.2,0.2,0.5,0.4,0.8,0.6c0.3,0.1,0.8,0.3,1.4,0.4
				c0.7,0.2,1.3,0.4,1.7,0.6c0.4,0.2,0.8,0.5,1.1,0.9c0.3,0.4,0.5,0.9,0.5,1.6c0,0.5-0.1,1-0.4,1.5c-0.3,0.5-0.7,0.8-1.2,1.1
				c-0.6,0.3-1.2,0.4-2,0.4C97.4,246.6,96.7,246.5,96.2,246.2z"/>
			<path class="st0" d="M119,244.1h-4.7l-0.9,2.4h-1.5l3.9-10.8h1.6l3.9,10.8h-1.5L119,244.1z M118.5,242.9l-2-5.5l-2,5.5H118.5z"/>
			<path class="st0" d="M137.9,235.6v1.2h-4.7v3.7h3.8v1.2h-3.8v4.9h-1.4v-10.9H137.9z"/>
			<path class="st0" d="M149.8,236.8v3.6h4v1.2h-4v3.7h4.4v1.2h-5.9v-10.9h5.9v1.2H149.8z"/>
			<path class="st0" d="M189.1,235.7v10.8h-1.4v-8.1l-3.6,8.1h-1l-3.6-8.1v8.1H178v-10.8h1.5l4,8.9l4-8.9H189.1z"/>
			<path class="st0" d="M202.4,245.9c-0.8-0.5-1.5-1.1-2-2s-0.7-1.8-0.7-2.9s0.2-2,0.7-2.9s1.1-1.5,2-2c0.8-0.5,1.8-0.7,2.8-0.7
				c1,0,1.9,0.2,2.8,0.7c0.8,0.5,1.5,1.1,2,2s0.7,1.8,0.7,2.9s-0.2,2-0.7,2.9s-1.1,1.5-2,2s-1.8,0.7-2.8,0.7
				C204.1,246.6,203.2,246.3,202.4,245.9z M207.2,244.8c0.6-0.4,1.1-0.9,1.4-1.5s0.5-1.4,0.5-2.3c0-0.9-0.2-1.6-0.5-2.3
				c-0.3-0.6-0.8-1.2-1.4-1.5s-1.3-0.5-2.1-0.5s-1.5,0.2-2.1,0.5s-1.1,0.9-1.4,1.5c-0.3,0.7-0.5,1.4-0.5,2.3c0,0.9,0.2,1.6,0.5,2.3
				s0.8,1.2,1.4,1.5c0.6,0.4,1.3,0.5,2.1,0.5C205.9,245.3,206.6,245.2,207.2,244.8z"/>
			<path class="st0" d="M229.7,246.5h-1.4l-5.7-8.7v8.7h-1.4v-10.9h1.4l5.7,8.6v-8.6h1.4V246.5z"/>
			<path class="st0" d="M242.3,236.8v3.6h4v1.2h-4v3.7h4.4v1.2h-5.9v-10.9h5.9v1.2H242.3z"/>
			<path class="st0" d="M265.3,235.6l-3.5,6.8v4.1h-1.4v-4.1l-3.6-6.8h1.6l2.7,5.5l2.7-5.5H265.3z"/>
		</g>
		<path class="st0" d="M49.3,96.9c14.4,28.9,78,37.8,127.6-36.8c-1.4-1.6-9.4-10.7-9.4-10.7l44.3,5.4l-4.5,43.1l-6.3-8.4
			c0,0-30.4,43.7-70.6,49.8c-52.7,8-75.9-24.7-79.4-31.1C50.5,103.9,49.3,96.9,49.3,96.9z"/>
		<path class="st0" d="M126.8,125c37.7-12.6,70-50.2,84.6-70.2l-43.8-5.4c0,0,7.9,9.1,9.4,10.7c-49.6,74.6-113.3,65.6-127.6,36.8
			c0,0,0.5,3,1,6.2C68.2,130.1,97.4,134.8,126.8,125z"/>
		<path class="st0" d="M126.8,125c-29.4,9.8-58.6,5.1-76.4-21.9c0.3,1.8,0.6,3.6,0.9,5.1c3.5,6.3,26.7,39.1,79.4,31.1
			c40.1-6.1,70.6-49.8,70.6-49.8l6.3,8.4l4.5-43.1l-0.5-0.1C196.8,74.7,164.5,112.4,126.8,125z"/>
	</g>
</g>
</svg>
