<?xml version="1.0" encoding="utf-8"?>
<!-- Generator: Adobe Illustrator 25.2.1, SVG Export Plug-In . SVG Version: 6.00 Build 0)  -->
<svg version="1.1" id="Layer_1" xmlns="http://www.w3.org/2000/svg" xmlns:xlink="http://www.w3.org/1999/xlink" x="0px" y="0px"
	 viewBox="0 0 462.3 408.9" style="enable-background:new 0 0 462.3 408.9;" xml:space="preserve">
<style type="text/css">
	.st0{fill:#FFFFFF;}
	.st1{clip-path:url(#SVGID_2_);fill:#FFFFFF;}
</style>
<g>
	<g>
		<path class="st0" d="M80.3,409v-26.1h-10v-3.5h23.9v3.5h-10V409H80.3z"/>
		<path class="st0" d="M114.3,409h-3.7v-12.7c0-1,0-2-0.1-2.9c-0.1-0.9-0.3-1.6-0.6-2.1c-0.3-0.6-0.7-1-1.3-1.2
			c-0.5-0.3-1.3-0.4-2.2-0.4c-0.9,0-1.9,0.2-2.9,0.7c-1,0.5-2,1.1-2.9,1.9V409h-3.7v-31h3.7v11.2c1.1-1,2.2-1.8,3.3-2.3
			c1.1-0.5,2.2-0.8,3.4-0.8c2.2,0,3.9,0.7,5.1,2.2c1.2,1.4,1.9,3.5,1.9,6.3V409z"/>
		<path class="st0" d="M129.2,409.5c-3.5,0-6.3-1-8.3-3c-2-2-2.9-4.8-2.9-8.5c0-3.6,0.9-6.5,2.8-8.7c1.9-2.1,4.4-3.2,7.4-3.2
			c1.4,0,2.6,0.2,3.7,0.6c1.1,0.4,2,1,2.8,1.9s1.4,1.9,1.8,3.1c0.4,1.2,0.6,2.7,0.6,4.5v2h-15.4c0,2.6,0.7,4.6,2,5.9
			c1.3,1.4,3.1,2.1,5.4,2.1c0.8,0,1.6-0.1,2.4-0.3c0.8-0.2,1.5-0.4,2.1-0.7c0.7-0.3,1.2-0.6,1.7-0.9c0.5-0.3,0.8-0.6,1.2-0.8h0.2
			v4.1c-0.4,0.2-1,0.4-1.6,0.6c-0.7,0.3-1.2,0.5-1.8,0.6c-0.7,0.2-1.4,0.4-2,0.5C130.9,409.4,130.2,409.5,129.2,409.5z M133.6,395.4
			c0-1-0.1-1.9-0.4-2.6c-0.2-0.7-0.5-1.3-0.9-1.9c-0.4-0.6-1-1-1.7-1.3c-0.7-0.3-1.5-0.4-2.5-0.4c-1,0-1.8,0.1-2.5,0.4
			c-0.7,0.3-1.3,0.7-1.9,1.3c-0.6,0.6-1,1.2-1.3,1.9s-0.5,1.5-0.6,2.5H133.6z"/>
		<path class="st0" d="M165.5,381.6h-0.2c-0.3-0.1-0.8-0.2-1.4-0.3c-0.6-0.1-1.2-0.2-1.7-0.2c-1.6,0-2.7,0.4-3.4,1.1
			c-0.7,0.7-1,2-1,3.9v0.8h6.2v3.1h-6.1V409h-3.7v-19.1h-2.5v-3.1h2.5V386c0-2.7,0.6-4.7,1.9-6.1c1.3-1.4,3.1-2.1,5.5-2.1
			c0.7,0,1.4,0,2,0.1c0.7,0.1,1.3,0.2,1.8,0.2V381.6z"/>
		<path class="st0" d="M183.7,409H180v-2.5c-1.2,1-2.2,1.8-3.3,2.3c-1,0.5-2.2,0.8-3.5,0.8c-1,0-1.9-0.2-2.7-0.5
			c-0.9-0.3-1.6-0.8-2.2-1.5s-1.1-1.6-1.5-2.6c-0.4-1-0.5-2.3-0.5-3.8v-14.4h3.7v12.7c0,1.2,0,2.2,0.1,2.9c0.1,0.8,0.3,1.5,0.6,2
			c0.3,0.6,0.7,1,1.2,1.3c0.5,0.3,1.3,0.4,2.3,0.4c0.9,0,1.9-0.3,2.9-0.8c1-0.5,2-1.2,2.8-1.9v-16.6h3.7V409z"/>
		<path class="st0" d="M195.9,409.4c-2,0-3.6-0.6-4.8-1.7c-1.1-1.2-1.7-3-1.7-5.5v-12.3h-2.5v-3.1h2.5v-6.4h3.7v6.4h6.9v3.1h-6.9
			v10.6c0,1.1,0,2,0.1,2.6c0,0.6,0.2,1.2,0.5,1.7c0.2,0.5,0.6,0.8,1.1,1c0.5,0.2,1.2,0.3,2.1,0.3c0.6,0,1.2-0.1,1.8-0.3
			c0.6-0.2,1-0.3,1.2-0.4h0.2v3.4c-0.7,0.2-1.4,0.4-2.1,0.5C197.1,409.4,196.5,409.4,195.9,409.4z"/>
		<path class="st0" d="M220.1,409h-3.7v-2.5c-1.2,1-2.2,1.8-3.3,2.3c-1,0.5-2.2,0.8-3.5,0.8c-1,0-1.9-0.2-2.7-0.5
			c-0.9-0.3-1.6-0.8-2.2-1.5s-1.1-1.6-1.5-2.6c-0.4-1-0.5-2.3-0.5-3.8v-14.4h3.7v12.7c0,1.2,0,2.2,0.1,2.9c0.1,0.8,0.3,1.5,0.6,2
			c0.3,0.6,0.7,1,1.2,1.3c0.5,0.3,1.3,0.4,2.3,0.4c0.9,0,1.9-0.3,2.9-0.8c1-0.5,2-1.2,2.8-1.9v-16.6h3.7V409z"/>
		<path class="st0" d="M237.3,390.8h-0.2c-0.3-0.1-0.6-0.1-0.9-0.1c-0.3,0-0.7,0-1.1,0c-1,0-2,0.2-3,0.7c-1,0.4-1.9,1.1-2.8,2V409
			h-3.7v-22.2h3.7v3.3c1.4-1.2,2.6-2.1,3.6-2.6c1-0.5,2-0.7,3-0.7c0.4,0,0.7,0,0.9,0c0.2,0,0.4,0,0.6,0.1V390.8z"/>
		<path class="st0" d="M249.7,409.5c-3.5,0-6.3-1-8.3-3c-2-2-2.9-4.8-2.9-8.5c0-3.6,0.9-6.5,2.8-8.7c1.9-2.1,4.4-3.2,7.4-3.2
			c1.4,0,2.6,0.2,3.7,0.6c1.1,0.4,2,1,2.8,1.9c0.8,0.8,1.4,1.9,1.8,3.1c0.4,1.2,0.6,2.7,0.6,4.5v2h-15.4c0,2.6,0.7,4.6,2,5.9
			s3.1,2.1,5.4,2.1c0.8,0,1.6-0.1,2.4-0.3c0.8-0.2,1.5-0.4,2.1-0.7c0.7-0.3,1.2-0.6,1.7-0.9c0.5-0.3,0.8-0.6,1.2-0.8h0.2v4.1
			c-0.4,0.2-1,0.4-1.6,0.6s-1.2,0.5-1.8,0.6c-0.7,0.2-1.4,0.4-2,0.5C251.3,409.4,250.6,409.5,249.7,409.5z M254,395.4
			c0-1-0.1-1.9-0.4-2.6c-0.2-0.7-0.5-1.3-0.9-1.9c-0.4-0.6-1-1-1.7-1.3c-0.7-0.3-1.5-0.4-2.5-0.4c-1,0-1.8,0.1-2.5,0.4
			s-1.3,0.7-1.9,1.3c-0.6,0.6-1,1.2-1.3,1.9c-0.3,0.7-0.5,1.5-0.6,2.5H254z"/>
		<path class="st0" d="M278.3,383H274v-3.9h4.3V383z M278,409h-3.7v-22.2h3.7V409z"/>
		<path class="st0" d="M289.5,409.5c-1.5,0-2.9-0.2-4.2-0.6c-1.3-0.4-2.4-0.8-3.2-1.3v-4.2h0.2c0.3,0.3,0.7,0.5,1.1,0.8s1,0.6,1.7,1
			c0.6,0.3,1.3,0.6,2.1,0.8s1.6,0.3,2.4,0.3c0.6,0,1.2-0.1,1.9-0.2c0.7-0.1,1.2-0.3,1.5-0.5c0.5-0.3,0.8-0.6,1-1
			c0.2-0.3,0.3-0.9,0.3-1.6c0-0.9-0.2-1.6-0.7-2c-0.5-0.5-1.3-0.8-2.6-1.1c-0.5-0.1-1.1-0.3-1.9-0.4c-0.8-0.2-1.5-0.3-2.1-0.5
			c-1.7-0.5-2.9-1.3-3.7-2.3c-0.8-1-1.2-2.3-1.2-3.7c0-2,0.8-3.6,2.3-4.9c1.5-1.3,3.5-1.9,6-1.9c1.2,0,2.5,0.2,3.7,0.5
			c1.2,0.3,2.3,0.7,3.1,1.2v4h-0.2c-1-0.8-2-1.4-3.2-1.8c-1.2-0.4-2.4-0.7-3.6-0.7c-1.2,0-2.3,0.3-3.1,0.8c-0.8,0.5-1.3,1.3-1.3,2.4
			c0,0.9,0.3,1.6,0.8,2.1c0.5,0.5,1.3,0.8,2.4,1.1c0.6,0.1,1.2,0.3,1.9,0.4s1.4,0.3,2.2,0.5c1.6,0.4,2.9,1.1,3.7,2.1
			c0.8,1,1.2,2.3,1.2,3.9c0,1-0.2,1.9-0.6,2.7c-0.4,0.9-0.9,1.6-1.7,2.2c-0.8,0.7-1.7,1.2-2.7,1.5
			C292.3,409.3,291.1,409.5,289.5,409.5z"/>
		<path class="st0" d="M332,409h-3.7v-12.7c0-1,0-2-0.1-2.9c-0.1-0.9-0.3-1.6-0.6-2.1c-0.3-0.6-0.7-1-1.3-1.2
			c-0.5-0.3-1.3-0.4-2.2-0.4c-0.9,0-1.9,0.2-2.9,0.7c-1,0.5-2,1.1-2.9,1.9V409h-3.7v-31h3.7v11.2c1.1-1,2.2-1.8,3.3-2.3
			c1.1-0.5,2.2-0.8,3.4-0.8c2.2,0,3.9,0.7,5.1,2.2s1.9,3.5,1.9,6.3V409z"/>
		<path class="st0" d="M346.9,409.5c-3.5,0-6.3-1-8.3-3c-2-2-2.9-4.8-2.9-8.5c0-3.6,0.9-6.5,2.8-8.7c1.9-2.1,4.4-3.2,7.4-3.2
			c1.4,0,2.6,0.2,3.7,0.6c1.1,0.4,2,1,2.8,1.9c0.8,0.8,1.4,1.9,1.8,3.1c0.4,1.2,0.6,2.7,0.6,4.5v2h-15.4c0,2.6,0.7,4.6,2,5.9
			s3.1,2.1,5.4,2.1c0.8,0,1.6-0.1,2.4-0.3c0.8-0.2,1.5-0.4,2.1-0.7c0.7-0.3,1.2-0.6,1.7-0.9c0.5-0.3,0.8-0.6,1.2-0.8h0.2v4.1
			c-0.4,0.2-1,0.4-1.6,0.6s-1.2,0.5-1.8,0.6c-0.7,0.2-1.4,0.4-2,0.5C348.5,409.4,347.8,409.5,346.9,409.5z M351.3,395.4
			c0-1-0.1-1.9-0.4-2.6c-0.2-0.7-0.5-1.3-0.9-1.9c-0.4-0.6-1-1-1.7-1.3c-0.7-0.3-1.5-0.4-2.5-0.4c-1,0-1.8,0.1-2.5,0.4
			s-1.3,0.7-1.9,1.3c-0.6,0.6-1,1.2-1.3,1.9c-0.3,0.7-0.5,1.5-0.6,2.5H351.3z"/>
		<path class="st0" d="M370.5,390.8h-0.2c-0.3-0.1-0.6-0.1-0.9-0.1c-0.3,0-0.7,0-1.1,0c-1,0-2,0.2-3,0.7c-1,0.4-1.9,1.1-2.8,2V409
			h-3.7v-22.2h3.7v3.3c1.4-1.2,2.6-2.1,3.6-2.6c1-0.5,2-0.7,3-0.7c0.4,0,0.7,0,0.9,0c0.2,0,0.4,0,0.6,0.1V390.8z"/>
		<path class="st0" d="M382.8,409.5c-3.5,0-6.3-1-8.3-3c-2-2-2.9-4.8-2.9-8.5c0-3.6,0.9-6.5,2.8-8.7c1.9-2.1,4.4-3.2,7.4-3.2
			c1.4,0,2.6,0.2,3.7,0.6c1.1,0.4,2,1,2.8,1.9c0.8,0.8,1.4,1.9,1.8,3.1c0.4,1.2,0.6,2.7,0.6,4.5v2h-15.4c0,2.6,0.7,4.6,2,5.9
			s3.1,2.1,5.4,2.1c0.8,0,1.6-0.1,2.4-0.3c0.8-0.2,1.5-0.4,2.1-0.7c0.7-0.3,1.2-0.6,1.7-0.9c0.5-0.3,0.8-0.6,1.2-0.8h0.2v4.1
			c-0.4,0.2-1,0.4-1.6,0.6s-1.2,0.5-1.8,0.6c-0.7,0.2-1.4,0.4-2,0.5C384.5,409.4,383.7,409.5,382.8,409.5z M387.2,395.4
			c0-1-0.1-1.9-0.4-2.6c-0.2-0.7-0.5-1.3-0.9-1.9c-0.4-0.6-1-1-1.7-1.3c-0.7-0.3-1.5-0.4-2.5-0.4c-1,0-1.8,0.1-2.5,0.4
			s-1.3,0.7-1.9,1.3c-0.6,0.6-1,1.2-1.3,1.9c-0.3,0.7-0.5,1.5-0.6,2.5H387.2z"/>
	</g>
	<path class="st0" d="M462.3,360.7h-10v-28.1c0-2.7-1-5-2.9-7c-1.9-1.9-4.2-2.9-6.9-2.9c-2.7,0-5,1-6.9,2.9c-1.9,1.9-2.9,4.2-2.9,7
		v28.1h-10v-47.4h10v1.9c3.1-1.7,6.4-2.5,9.8-2.5c5.5,0,10.1,1.9,14,5.8c3.9,3.9,5.8,8.5,5.8,14V360.7z M405.3,309.5
		c-1.7,0-3.1-0.6-4.3-1.8c-1.2-1.2-1.8-2.6-1.8-4.3c0-1.7,0.6-3.1,1.8-4.3c1.2-1.2,2.6-1.8,4.3-1.8c1.7,0,3.1,0.6,4.3,1.8
		c1.2,1.2,1.8,2.7,1.8,4.3c0,1.7-0.6,3.1-1.8,4.3C408.4,308.9,407,309.5,405.3,309.5z M400.3,313.3h10v47.4h-10V313.3z M363.6,361.3
		c-6.7,0-12.4-2.4-17.1-7.1c-4.8-4.8-7.1-10.5-7.1-17.1c0-6.7,2.4-12.4,7.1-17.2c4.7-4.7,10.5-7.1,17.1-7.1c6.7,0,11.5,1.4,14.3,4.2
		v-3.7h10v47.4h-10v-3.6C375.1,359.9,370.4,361.3,363.6,361.3z M363.6,322.7c-3.9,0-7.3,1.4-10.1,4.2c-2.8,2.8-4.2,6.1-4.2,10.1
		c0,3.9,1.4,7.3,4.2,10.1c2.8,2.8,6.1,4.2,10.1,4.2c3.9,0,7.3-1.4,10.1-4.2c2.8-2.8,4.2-6.1,4.2-10.1c0-4-1.4-7.3-4.2-10.1
		C371,324.1,367.6,322.7,363.6,322.7z M330.1,360.7h-10v-28.2c0-2.7-0.9-5-2.8-6.9c-1.9-1.9-4.2-2.9-7-2.9c-2.7,0-5,1-6.9,2.9
		c-1.9,1.9-2.8,4.2-2.8,6.9v28.2h-10v-67.3h10v21.9c3.1-1.7,6.4-2.6,9.8-2.5c5.5,0,10.1,1.9,14,5.8c3.9,3.9,5.8,8.6,5.8,14V360.7z
		 M280.2,346.2c-2.6,5.1-5.8,8.9-9.6,11.3c-3.9,2.5-8.2,3.8-12.9,3.8c-6.7,0-12.4-2.4-17.2-7.1c-4.8-4.8-7.1-10.5-7.1-17.2
		c0-6.7,2.4-12.4,7.1-17.1c4.8-4.7,10.5-7.1,17.2-7.1c4.7,0,9,1.2,12.9,3.8c3.8,2.4,7.1,6.2,9.6,11.3l-9.2,4
		c-1.7-3.3-3.6-5.6-5.8-6.9c-2.3-1.4-4.8-2.2-7.5-2.2c-4,0-7.3,1.4-10.1,4.2c-2.8,2.8-4.2,6.2-4.2,10.1c0,3.9,1.4,7.3,4.2,10.1
		c2.8,2.8,6.1,4.2,10.1,4.2c2.7,0,5.1-0.7,7.5-2.2c2.2-1.3,4.1-3.6,5.8-6.9L280.2,346.2z M229.8,360.7h-12.3l-14.2-20.3l-5.6,5.6
		v14.6h-10v-67.3h10v38.5l18.8-18.7h14.2l-20.1,20L229.8,360.7z M177.4,346.2c-2.6,5.1-5.8,8.9-9.6,11.3c-3.9,2.5-8.2,3.8-12.9,3.8
		c-6.7,0-12.4-2.4-17.2-7.1c-4.8-4.8-7.1-10.5-7.1-17.2c0-6.7,2.4-12.4,7.1-17.1c4.8-4.7,10.5-7.1,17.2-7.1c4.7,0,9,1.2,12.9,3.8
		c3.8,2.4,7.1,6.2,9.6,11.3l-9.2,4c-1.7-3.3-3.6-5.6-5.8-6.9c-2.3-1.4-4.8-2.2-7.5-2.2c-4,0-7.3,1.4-10.1,4.2
		c-2.8,2.8-4.2,6.2-4.2,10.1c0,3.9,1.4,7.3,4.2,10.1c2.8,2.8,6.1,4.2,10.1,4.2c2.7,0,5.1-0.7,7.5-2.2c2.2-1.3,4.1-3.6,5.8-6.9
		L177.4,346.2z M99,361.3c-6.7,0-12.4-2.4-17.2-7.1c-4.8-4.8-7.1-10.5-7.1-17.2c0-6.7,2.4-12.4,7.1-17.1c4.7-4.7,10.5-7.1,17.2-7.1
		c6.7,0,12.4,2.4,17.1,7.1c4.8,4.7,7.1,10.5,7.1,17.1c0,6.7-2.4,12.4-7.1,17.2C111.4,358.9,105.7,361.3,99,361.3z M99,322.7
		c-4,0-7.3,1.4-10.1,4.2c-2.8,2.8-4.2,6.2-4.2,10.1c0,3.9,1.4,7.3,4.2,10.1c2.8,2.8,6.1,4.2,10.1,4.2c3.9,0,7.3-1.4,10.1-4.2
		c2.8-2.8,4.2-6.2,4.2-10.1c0-4-1.4-7.3-4.2-10.1C106.3,324.1,103,322.7,99,322.7z M55.9,293.3h10v67.3h-10V293.3z M39.3,328.4
		c3.7,3.7,5.5,8.1,5.5,13.3c0,5.2-1.8,9.6-5.5,13.3c-3.6,3.7-7.5,5.6-11.5,5.6v0H0v-65h22.8c6.3,0,11.3,1.9,14.9,5.5
		c3.7,3.6,5.5,8,5.5,13.2c0,5.1-1.8,9.6-5.5,13.3c-0.8,0-0.9-0.3-0.3-0.8C37.8,327.1,38.4,327.6,39.3,328.4z M10.2,305.9V323h14.4
		c2.3,0,4.4-0.9,6-2.5c1.7-1.7,2.5-3.7,2.5-6.1c0-2.3-0.9-4.4-2.5-6.1c-1.7-1.7-3.7-2.5-6.1-2.5H10.2z M26.1,350.4
		c2.3,0,4.4-0.9,6.1-2.5c1.7-1.7,2.5-3.7,2.4-6.1c0-2.3-0.8-4.4-2.5-6.1c-1.7-1.7-3.7-2.5-6.1-2.5H10.2v17.2H26.1z"/>
	<g>
		<defs>
			<path id="SVGID_1_" d="M214,116.2l17.2,9.9l17.2-9.9l-17.2-9.9L214,116.2z M226,154.7v-19.8l-17.1-9.9v19.8L226,154.7z
				 M248.3,20.2l-17.1-9.9L214,20.2l17.1,9.9L248.3,20.2z M236.2,58.8l17.1-9.9V29.1L236.2,39V58.8z M208.9,48.9l17.1,9.9V39
				l-17.1-9.9V48.9z M236.2,250.7l17.1-9.9V221l-17.1,9.9V250.7z M208.9,221v19.8l17.1,9.9v-19.8L208.9,221z M231.1,202.2l-17.1,9.9
				l17.1,9.9l17.1-9.9L231.1,202.2z M319.3,202.7l17.1-9.9V173l-17.1,9.9V202.7z M292,173v19.8l17.1,9.9v-19.8L292,173z
				 M314.2,154.3l-17.1,9.9l17.1,9.9l17.1-9.9L314.2,154.3z M153.2,202.7l17.1-9.9V173l-17.1,9.9V202.7z M125.8,173v19.8l17.1,9.9
				v-19.8L125.8,173z M148,154.3l-17.1,9.9l17.1,9.9l17.1-9.9L148,154.3z M175.4,105.7l-22.2,12.8v26.9l24.4,14.1
				c1.8,0.8,3,2.6,3,4.7v28.6l23.3,13.4l22.2-12.8v-26.9l-24.4-14.1c-1.8-0.8-3-2.6-3-4.7v-28.7L175.4,105.7z M153.2,106.8l17.1-9.9
				V77.1l-17.1,9.9V106.8z M125.8,77.1v19.8l17.1,9.9V86.9L125.8,77.1z M148,58.3l-17.2,9.9l17.2,9.9l17.2-9.9L148,58.3z
				 M281.8,96.9V71.2l-23.3-13.4l-24.4,14.1c-0.8,0.6-1.9,0.9-3,0.9c-1.1,0-2.1-0.4-3-0.9l-24.4-14.1l-23.3,13.4v25.7l23.3,13.4
				L228.5,96c1.5-0.9,3.5-1,5.1,0l24.8,14.3L281.8,96.9z M309.1,118.5l-22.2-12.8l-23.3,13.4v28.7h0c0,1.8-0.9,3.5-2.6,4.4
				l-24.8,14.3v26.9l22.2,12.8l23.3-13.4v-28.6h0c0-0.9,0.2-1.8,0.7-2.6c0.5-0.9,1.3-1.6,2.1-2l24.5-14.1V118.5z M286.9,62.3
				L311.6,48c1.5-0.9,3.5-1,5.1,0l26.9,15.6c1.8,0.8,3,2.6,3,4.7v31.6h0c0,1.8-0.9,3.5-2.6,4.4l-24.8,14.3v26.9l24.4,14.1
				c1.8,0.8,3,2.6,3,4.7v31.6h0c0,1.8-0.9,3.5-2.5,4.4l-27.1,15.6c-0.8,0.5-1.8,0.9-2.8,0.9c-1.1,0-2-0.3-2.9-0.9l-24.5-14.1
				l-23.3,13.4v28.6h0c0,1.8-0.9,3.5-2.5,4.4L234,263.8c-0.8,0.6-1.8,0.9-2.9,0.9c-1.1,0-2-0.3-2.9-0.9l-26.7-15.4
				c-1.7-0.8-2.9-2.6-2.9-4.6v-28.6l-23.3-13.4l-24.5,14.1c-0.8,0.6-1.8,0.9-2.9,0.9c-1.1,0-2-0.3-2.9-0.9l-26.7-15.4
				c-1.7-0.8-2.9-2.6-2.9-4.6v-31.6h0c0-0.9,0.2-1.8,0.7-2.6c0.5-0.9,1.3-1.6,2.1-2l24.5-14.2v-26.9l-24.4-14.1
				c-1.8-0.8-3-2.6-3-4.7V68.2h0v0l0-0.1c0-0.6,0.1-1.1,0.3-1.7l0,0l0-0.1l0,0l0-0.1l0,0l0,0l0-0.1l0,0l0,0c0.3-0.6,0.7-1.2,1.3-1.7
				l0,0l0.1,0l0,0l0,0l0.1-0.1l0,0l0.1,0l0,0l0,0l0.1,0l0,0l0.1,0l0,0l0.1-0.1l0,0l0,0l0.1,0l0,0l0.1-0.1l0,0L145.4,48
				c1.5-0.9,3.5-1,5.1,0l24.8,14.3l23.3-13.4V20.2c0-2,1.2-3.8,2.9-4.6l27-15.6c1.7-1,3.6-0.9,5.2,0L261,15.8c0.4,0.2,0.7,0.5,1,0.8
				l0,0l0,0l0,0l0.1,0.1l0,0l0,0l0.1,0.1l0,0l0.1,0.1l0,0l0,0c0.1,0.1,0.1,0.2,0.2,0.3l0,0c0.1,0.2,0.2,0.4,0.3,0.6l0,0
				c0,0.1,0.1,0.1,0.1,0.2l0,0l0,0.1l0,0l0,0.1l0,0.1c0.2,0.6,0.4,1.2,0.4,1.8l0,0.1l0,0.1v0.1v0h0v28.6L286.9,62.3z M319.3,106.8
				l17.1-9.9V77.1l-17.1,9.9V106.8z M292,77.1v19.8l17.1,9.9V86.9L292,77.1z M314.2,58.3l-17.2,9.9l17.2,9.9l17.2-9.9L314.2,58.3z
				 M236.2,134.9v19.8l17.1-9.9V125L236.2,134.9z"/>
		</defs>
		<use xlink:href="#SVGID_1_"  style="overflow:visible;fill:#FFFFFF;"/>
		<clipPath id="SVGID_2_">
			<use xlink:href="#SVGID_1_"  style="overflow:visible;"/>
		</clipPath>
		<rect x="115.6" y="-0.9" class="st1" width="231.1" height="265.6"/>
	</g>
</g>
</svg>
