<?xml version="1.0" encoding="utf-8"?>
<!-- Generator: Adobe Illustrator 25.2.1, SVG Export Plug-In . SVG Version: 6.00 Build 0)  -->
<svg version="1.1" xmlns="http://www.w3.org/2000/svg" xmlns:xlink="http://www.w3.org/1999/xlink" x="0px" y="0px"
	 viewBox="0 0 305.8 310.5" style="enable-background:new 0 0 305.8 310.5;" xml:space="preserve">
<style type="text/css">
	.st0{fill:#FFFFFF;}
</style>
<g id="BG">
</g>
<g id="graphics">
	<g>
		<path class="st0" d="M9.3,234.6v10.9c1-1.7,2.5-3.1,4.4-4.2c1.6-0.9,3.6-1.4,6-1.4c4.3,0,7.8,1.8,10.5,5.3
			c2.7,3.6,4.1,8.2,4.1,13.8c0,5.7-1.4,10.3-4.1,13.8c-1.4,1.7-3.2,3-5.5,3.8c-2.3,0.8-4.6,1.2-6.9,1.2c-4.4,0-8.4-1.1-12.2-3.4
			c-3.7-2.3-5.6-6.7-5.6-13.1V230h4.6c1.3,0,2.4,0.5,3.3,1.4C8.8,232.2,9.3,233.3,9.3,234.6z M24.9,258.7c0-3.3-0.7-5.8-2.1-7.7
			c-1.4-1.9-3.2-2.9-5.6-2.9c-2.6,0-4.5,0.9-5.9,2.7c-1.4,1.9-2.1,4.5-2.1,7.8c0,3.8,0.6,6.6,1.9,8.3c1.4,1.9,3.3,2.9,5.7,2.9
			c2.5,0,4.5-1,5.9-2.9C24.2,265.1,24.9,262.3,24.9,258.7z"/>
		<path class="st0" d="M37.3,277.1v-17.6c0-3.6,0.5-6.5,1.6-9c1-2.4,2.5-4.4,4.3-5.8c1.7-1.4,3.8-2.4,6.1-3c2.3-0.6,4.7-1,7.2-1
			c0.2,0,0.4,0,0.7,0c0.3,0,0.5,0,0.7,0v9.7h-3.1c-2.6,0-4.6,0.6-5.9,1.9c-1.3,1.3-1.9,3.3-1.9,6v18.7H37.3z"/>
		<path class="st0" d="M83.4,275.6c-1.9,1-3.9,1.6-6.1,1.8c-2.1,0.2-4,0.3-5.7,0.3c-3.3,0-6.2-0.9-8.6-2.7c-2.5-1.8-3.7-4.7-3.7-8.8
			c0-3.8,1.1-6.6,3.3-8.2c2.2-1.6,5.1-2.7,8.5-3.3c0.5,0,1-0.1,1.6-0.2c0.6-0.1,1.4-0.2,2.2-0.3c4-0.5,6-1.7,6-3.6
			c0-1.4-0.7-2.3-2.1-2.7c-1.4-0.4-2.7-0.6-3.9-0.6c-1.3,0-2.4,0.2-3.4,0.5c-1,0.4-1.7,1-2.2,2.1h-9.2c0.4-2.8,1.6-5.1,3.8-7
			c2.5-2.1,6-3.1,10.5-3.1c5.1,0,8.9,0.9,11.5,2.6c2.6,1.8,4,4.4,4,7.7v12.4c0,3.6-0.7,6.5-2,8.5C86.8,273.2,85.3,274.7,83.4,275.6z
			 M81.3,258.8c-1.3,0.6-3.1,1.2-5.3,1.8l-3.1,0.7c-1.6,0.5-2.8,1-3.6,1.8c-0.6,1-1,2-1,3c0,1.4,0.4,2.5,1.2,3.3
			c0.8,0.7,2,1.1,3.6,1.1c2.6,0,4.6-0.7,6-2.2c1.5-1.5,2.2-3.5,2.2-6V258.8z"/>
		<path class="st0" d="M93.7,230.1h4.9c1.3,0,2.4,0.5,3.3,1.4c0.9,0.9,1.4,2,1.4,3.3v2.9h-9.6V230.1z M93.7,240.8h4.9
			c1.3,0,2.4,0.5,3.3,1.4c0.9,0.9,1.4,2,1.4,3.3v31.7h-9.6V240.8z"/>
		<path class="st0" d="M138.8,277.1H134c-1.4,0-2.5-0.4-3.3-1.3c-0.9-0.9-1.3-2-1.3-3.3v-18.6c0-2.2-0.7-3.8-2-4.8
			c-1.3-1-2.8-1.5-4.4-1.5c-1.6,0-3.1,0.5-4.4,1.5c-1.3,1-1.9,2.6-1.9,4.8v23.2h-9.6v-21.3c0-6.2,1.6-10.3,4.9-12.4
			c3.2-2.1,6.8-3.2,10.7-3.4c4,0,7.7,1,11.1,3.1c3.4,2.1,5.1,6.3,5.1,12.7V277.1z"/>
		<path class="st0" d="M140.9,265.1h9.3c0.1,1.8,0.8,3.2,2.1,4.1c1.4,0.9,3.2,1.4,5.5,1.4c1.6,0,3.1-0.3,4.2-1
			c1.1-0.6,1.6-1.5,1.6-2.6c0-1.6-1.9-2.9-5.7-3.7c-1.6-0.3-2.9-0.5-3.7-0.8c-4.8-1.2-8.1-2.6-9.7-4.2c-1.8-1.6-2.7-3.8-2.7-6.6
			c0-3.5,1.3-6.3,4-8.6c2.7-2.1,6.3-3.1,10.7-3.1c4.7,0,8.5,1,11.3,3.1c2.6,2.3,4.1,5.2,4.2,8.9h-5.9c-1.7,0-3.1-0.8-4-2.3
			c-0.4-0.4-0.7-0.7-1.1-1.1c-1.1-0.8-2.6-1.2-4.5-1.2c-1.8,0-3.2,0.3-4.1,0.8c-0.8,0.5-1.2,1.4-1.2,2.5c0,1.5,2.4,2.7,7.1,3.7
			c0.5,0.2,1,0.3,1.4,0.4c0.4,0.1,0.8,0.1,1.2,0.1c4.6,1.2,7.9,2.6,9.7,4.1c1.7,1.6,2.6,3.8,2.6,6.6c0,4-1.5,7.1-4.4,9.3
			c-2.7,2-6.8,3-12.3,3c-5.2,0-9.1-1-11.6-3.1c-2.6-2.1-4-5.1-4-9.2V265.1z"/>
		<path class="st0" d="M191.2,277.1c-3,0.2-6.3,0.1-9.8-0.1c-3.5-0.3-5.3-2.5-5.3-6.7v-40.2h4.9c1.2,0,2.2,0.5,3.1,1.4
			c0.9,0.9,1.4,2,1.4,3.3v6.2h5.6v1.9c0,1.4-0.5,2.5-1.4,3.3c-0.9,0.9-2,1.3-3.3,1.3h-1v20.2c0,1.6,0.9,2.3,2.7,2.3h2.9V277.1z"/>
		<path class="st0" d="M197.9,273.8c-1.9-1.6-3.3-3.8-4.1-6.6c-0.8-2.8-1.2-5.7-1.2-8.7c0-2.5,0.3-4.9,1-7.4
			c0.7-2.5,1.8-4.5,3.2-6.2c2.4-2.7,5.4-4.4,9.2-4.9c3.7-0.5,7.1-0.2,10.1,0.9c3.5,1.4,6,3.7,7.7,7.1c1.5,3,2.3,6.5,2.3,10.5
			c0,2.9-0.3,5.4-1,7.5c-0.6,2.1-1.5,3.9-2.5,5.3c-2.2,3-5,4.9-8.3,5.6c-3,0.8-6,0.9-9.1,0.2C202.2,276.6,199.8,275.5,197.9,273.8z
			 M204.5,249.8c-1.9,2.1-2.8,5.2-2.6,9.4c0.2,4.1,1,7,2.3,8.7c0.5,0.7,1.5,1.3,2.9,1.8c1.4,0.5,2.8,0.5,4.2,0.1
			c1.4-0.4,2.7-1.4,3.8-3.1c1.1-1.6,1.7-4.3,1.8-7.9c0-3.3-0.5-5.7-1.6-7.4c-1-1.6-2.3-2.7-3.6-3.1c-1.4-0.5-2.7-0.5-4.1-0.1
			C206.1,248.6,205.1,249.1,204.5,249.8z"/>
		<path class="st0" d="M229,277.1v-17.6c0-3.6,0.5-6.5,1.6-9c1-2.4,2.5-4.4,4.3-5.8c1.7-1.4,3.8-2.4,6.1-3c2.3-0.6,4.7-1,7.2-1
			c0.2,0,0.4,0,0.7,0c0.3,0,0.5,0,0.7,0v9.7h-3.1c-2.6,0-4.6,0.6-5.9,1.9c-1.3,1.3-1.9,3.3-1.9,6v18.7H229z"/>
		<path class="st0" d="M283.6,277.1h-9.4v-21.3v-1.9c0-2.2-0.7-3.8-2-4.8c-1.3-1-2.8-1.5-4.4-1.5c-1.6,0-3.1,0.5-4.4,1.5
			c-1.3,1-1.9,2.6-1.9,4.8v23.2h-9.6v-21.3c0-6.2,1.6-10.3,4.9-12.4c3.2-2.1,6.8-3.2,10.7-3.4c2.1,0,4.1,0.2,6.2,0.7
			c2,0.5,3.8,1.4,5.5,2.7c1.4-1.2,3-2,4.9-2.5c1.9-0.5,3.8-0.8,5.8-0.9c4,0,7.7,1,11.1,3.1c3.4,2.1,5.1,6.3,5.1,12.7v21.3h-4.8
			c-1.4,0-2.5-0.4-3.3-1.3c-0.9-0.9-1.3-2-1.3-3.3v-18.6c0-2.2-0.7-3.8-2-4.8c-1.3-1-2.8-1.5-4.4-1.5c-1.6,0-3.1,0.5-4.4,1.5
			c-1.3,1-2,2.6-2,4.8v1.9V277.1z"/>
	</g>
	<g>
		<path class="st0" d="M55.1,296.2l3.6,11.9h0.1l3.4-11.9H64l3.4,11.9h0.1l3.6-11.9h1.8l-4.5,13.9h-1.9l-3.4-11.7H63l-3.4,11.7h-1.9
			l-4.5-13.9H55.1z"/>
		<path class="st0" d="M76.4,290.8v7.7h0.1c0.3-0.8,0.9-1.5,1.7-2c0.8-0.5,1.7-0.8,2.7-0.8c1,0,1.8,0.1,2.4,0.4
			c0.7,0.3,1.2,0.6,1.6,1.1c0.4,0.5,0.7,1,0.8,1.7c0.2,0.7,0.2,1.4,0.2,2.2v9h-1.7v-8.7c0-0.6-0.1-1.1-0.2-1.7
			c-0.1-0.5-0.3-1-0.6-1.3c-0.3-0.4-0.6-0.7-1.1-0.9c-0.5-0.2-1-0.3-1.7-0.3c-0.7,0-1.3,0.1-1.8,0.4c-0.5,0.2-1,0.6-1.3,1
			c-0.4,0.4-0.7,0.9-0.9,1.5c-0.2,0.6-0.3,1.2-0.3,1.9v8.1h-1.7v-19.3H76.4z"/>
		<path class="st0" d="M90.5,305.5c0.2,0.7,0.4,1.2,0.8,1.8c0.4,0.5,0.9,1,1.4,1.3c0.6,0.3,1.3,0.5,2.1,0.5c1.2,0,2.2-0.3,2.9-1
			c0.7-0.6,1.2-1.5,1.5-2.6h1.7c-0.4,1.6-1,2.8-2,3.7c-1,0.9-2.3,1.3-4.1,1.3c-1.1,0-2-0.2-2.8-0.6c-0.8-0.4-1.5-0.9-2-1.6
			c-0.5-0.7-0.9-1.5-1.1-2.3s-0.4-1.8-0.4-2.8c0-0.9,0.1-1.8,0.4-2.7c0.2-0.9,0.6-1.7,1.1-2.4c0.5-0.7,1.2-1.3,2-1.7
			c0.8-0.4,1.8-0.6,2.8-0.6c1.1,0,2.1,0.2,2.9,0.7c0.8,0.5,1.4,1,1.9,1.8c0.5,0.7,0.9,1.6,1.1,2.5c0.2,0.9,0.3,1.9,0.3,2.9H90.2
			C90.2,304.2,90.3,304.8,90.5,305.5z M98.9,300.3c-0.2-0.6-0.5-1.1-0.9-1.6c-0.4-0.5-0.8-0.8-1.4-1.1s-1.2-0.4-1.8-0.4
			c-0.7,0-1.3,0.1-1.9,0.4c-0.5,0.3-1,0.6-1.4,1.1c-0.4,0.5-0.7,1-0.9,1.6c-0.2,0.6-0.4,1.2-0.4,1.8h9
			C99.2,301.5,99.1,300.9,98.9,300.3z"/>
		<path class="st0" d="M104.8,296.2v3.3h0.1c0.4-1.1,1.1-2,2-2.6c0.9-0.6,2-0.9,3.3-0.8v1.7c-0.8,0-1.5,0.1-2.1,0.3
			c-0.6,0.2-1.2,0.6-1.6,1c-0.5,0.5-0.8,1-1.1,1.6c-0.3,0.6-0.4,1.3-0.4,2v7.4h-1.7v-13.9H104.8z"/>
		<path class="st0" d="M112.5,305.5c0.2,0.7,0.4,1.2,0.8,1.8c0.4,0.5,0.9,1,1.4,1.3c0.6,0.3,1.3,0.5,2.1,0.5c1.2,0,2.2-0.3,2.9-1
			c0.7-0.6,1.2-1.5,1.5-2.6h1.7c-0.4,1.6-1,2.8-2,3.7c-1,0.9-2.3,1.3-4.1,1.3c-1.1,0-2-0.2-2.8-0.6c-0.8-0.4-1.5-0.9-2-1.6
			c-0.5-0.7-0.9-1.5-1.1-2.3c-0.2-0.9-0.4-1.8-0.4-2.8c0-0.9,0.1-1.8,0.4-2.7c0.2-0.9,0.6-1.7,1.1-2.4c0.5-0.7,1.2-1.3,2-1.7
			c0.8-0.4,1.8-0.6,2.8-0.6c1.1,0,2.1,0.2,2.9,0.7c0.8,0.5,1.4,1,1.9,1.8c0.5,0.7,0.9,1.6,1.1,2.5c0.2,0.9,0.3,1.9,0.3,2.9h-10.7
			C112.2,304.2,112.3,304.8,112.5,305.5z M120.9,300.3c-0.2-0.6-0.5-1.1-0.9-1.6c-0.4-0.5-0.8-0.8-1.4-1.1c-0.5-0.3-1.2-0.4-1.8-0.4
			c-0.7,0-1.3,0.1-1.9,0.4s-1,0.6-1.4,1.1c-0.4,0.5-0.7,1-0.9,1.6c-0.2,0.6-0.4,1.2-0.4,1.8h9C121.2,301.5,121.1,300.9,120.9,300.3z
			"/>
		<path class="st0" d="M134.5,290.8v2.7h-1.7v-2.7H134.5z M134.5,296.2v13.9h-1.7v-13.9H134.5z"/>
		<path class="st0" d="M148.4,310.1v-2.6h-0.1c-0.2,0.5-0.4,0.9-0.8,1.2c-0.4,0.4-0.8,0.7-1.2,1c-0.5,0.3-0.9,0.5-1.4,0.6
			c-0.5,0.1-1,0.2-1.5,0.2c-1.1,0-2-0.2-2.8-0.6c-0.8-0.4-1.4-0.9-2-1.6c-0.5-0.7-0.9-1.5-1.2-2.3c-0.3-0.9-0.4-1.8-0.4-2.8
			c0-1,0.1-1.9,0.4-2.8c0.3-0.9,0.6-1.7,1.2-2.3c0.5-0.7,1.2-1.2,2-1.6c0.8-0.4,1.7-0.6,2.8-0.6c0.5,0,1,0.1,1.5,0.2
			c0.5,0.1,1,0.3,1.4,0.6c0.4,0.3,0.8,0.6,1.1,1c0.3,0.4,0.6,0.8,0.8,1.3h0.1v-8h1.7v19.3H148.4z M139.1,305.3
			c0.2,0.7,0.4,1.3,0.8,1.9c0.4,0.6,0.8,1,1.4,1.4c0.6,0.4,1.3,0.5,2.1,0.5c0.9,0,1.7-0.2,2.3-0.5c0.6-0.4,1.1-0.8,1.5-1.4
			c0.4-0.6,0.7-1.2,0.8-1.9s0.3-1.4,0.3-2.1c0-0.7-0.1-1.4-0.3-2.1c-0.2-0.7-0.5-1.3-0.8-1.9c-0.4-0.6-0.9-1-1.5-1.4
			c-0.6-0.4-1.4-0.5-2.3-0.5c-0.8,0-1.5,0.2-2.1,0.5c-0.6,0.4-1,0.8-1.4,1.4c-0.4,0.6-0.6,1.2-0.8,1.9c-0.2,0.7-0.3,1.4-0.3,2.1
			C138.9,303.8,138.9,304.6,139.1,305.3z"/>
		<path class="st0" d="M154.5,305.5c0.2,0.7,0.4,1.2,0.8,1.8c0.4,0.5,0.9,1,1.4,1.3c0.6,0.3,1.3,0.5,2.1,0.5c1.2,0,2.2-0.3,2.9-1
			c0.7-0.6,1.2-1.5,1.5-2.6h1.7c-0.4,1.6-1,2.8-2,3.7c-1,0.9-2.3,1.3-4.1,1.3c-1.1,0-2-0.2-2.8-0.6c-0.8-0.4-1.5-0.9-2-1.6
			c-0.5-0.7-0.9-1.5-1.1-2.3c-0.2-0.9-0.4-1.8-0.4-2.8c0-0.9,0.1-1.8,0.4-2.7c0.2-0.9,0.6-1.7,1.1-2.4c0.5-0.7,1.2-1.3,2-1.7
			c0.8-0.4,1.8-0.6,2.8-0.6c1.1,0,2.1,0.2,2.9,0.7c0.8,0.5,1.4,1,1.9,1.8c0.5,0.7,0.9,1.6,1.1,2.5c0.2,0.9,0.3,1.9,0.3,2.9h-10.7
			C154.2,304.2,154.3,304.8,154.5,305.5z M162.9,300.3c-0.2-0.6-0.5-1.1-0.9-1.6c-0.4-0.5-0.8-0.8-1.4-1.1c-0.5-0.3-1.2-0.4-1.8-0.4
			c-0.7,0-1.3,0.1-1.9,0.4c-0.5,0.3-1,0.6-1.4,1.1c-0.4,0.5-0.7,1-0.9,1.6c-0.2,0.6-0.4,1.2-0.4,1.8h9
			C163.2,301.5,163.1,300.9,162.9,300.3z"/>
		<path class="st0" d="M167.6,298.3c0.3-0.6,0.7-1.1,1.2-1.5c0.5-0.4,1.1-0.7,1.7-0.8c0.7-0.2,1.4-0.3,2.2-0.3
			c0.6,0,1.2,0.1,1.8,0.2c0.6,0.1,1.2,0.3,1.6,0.7c0.5,0.3,0.9,0.8,1.2,1.4c0.3,0.6,0.5,1.3,0.5,2.3v7.4c0,0.7,0.3,1,1,1
			c0.2,0,0.4,0,0.5-0.1v1.4c-0.2,0-0.4,0.1-0.5,0.1c-0.2,0-0.3,0-0.6,0c-0.4,0-0.8-0.1-1-0.2c-0.3-0.1-0.5-0.3-0.6-0.5
			c-0.1-0.2-0.2-0.5-0.3-0.8c0-0.3-0.1-0.6-0.1-1h-0.1c-0.3,0.5-0.6,0.9-0.9,1.2c-0.3,0.4-0.7,0.6-1.1,0.9c-0.4,0.2-0.8,0.4-1.3,0.5
			c-0.5,0.1-1.1,0.2-1.8,0.2c-0.6,0-1.3-0.1-1.8-0.2c-0.6-0.2-1.1-0.4-1.5-0.7c-0.4-0.3-0.8-0.8-1-1.3c-0.2-0.5-0.4-1.1-0.4-1.8
			c0-1,0.2-1.7,0.6-2.3c0.4-0.5,1-1,1.7-1.3c0.7-0.3,1.5-0.5,2.4-0.6c0.9-0.1,1.8-0.2,2.7-0.3c0.4,0,0.7-0.1,0.9-0.1
			c0.3-0.1,0.5-0.1,0.7-0.3c0.2-0.1,0.3-0.3,0.4-0.6c0.1-0.2,0.1-0.5,0.1-0.9c0-0.6-0.1-1-0.3-1.4c-0.2-0.4-0.5-0.7-0.8-0.9
			c-0.3-0.2-0.7-0.4-1.2-0.4c-0.4-0.1-0.9-0.1-1.4-0.1c-1.1,0-2,0.3-2.6,0.8c-0.7,0.5-1,1.3-1.1,2.5h-1.7
			C167.2,299.6,167.3,298.9,167.6,298.3z M176.1,302.5c-0.1,0.2-0.3,0.3-0.6,0.4c-0.3,0.1-0.6,0.2-0.8,0.2c-0.7,0.1-1.5,0.2-2.2,0.3
			c-0.8,0.1-1.5,0.2-2.1,0.4c-0.6,0.2-1.1,0.5-1.6,0.9c-0.4,0.4-0.6,0.9-0.6,1.6c0,0.4,0.1,0.8,0.3,1.1c0.2,0.3,0.4,0.6,0.7,0.9
			s0.6,0.4,1,0.6c0.4,0.1,0.8,0.2,1.2,0.2c0.6,0,1.3-0.1,1.9-0.3c0.6-0.2,1.1-0.5,1.6-0.9c0.4-0.4,0.8-0.8,1.1-1.4
			c0.3-0.5,0.4-1.2,0.4-1.8L176.1,302.5L176.1,302.5z"/>
		<path class="st0" d="M189.3,298.9c-0.2-0.4-0.5-0.7-0.8-1c-0.3-0.3-0.7-0.4-1.1-0.6c-0.4-0.1-0.9-0.2-1.4-0.2
			c-0.4,0-0.8,0-1.1,0.1c-0.4,0.1-0.7,0.2-1.1,0.4c-0.3,0.2-0.6,0.4-0.8,0.7c-0.2,0.3-0.3,0.7-0.3,1.1c0,0.4,0.1,0.7,0.3,1
			c0.2,0.3,0.4,0.5,0.7,0.7c0.3,0.2,0.6,0.3,0.9,0.4c0.3,0.1,0.7,0.2,0.9,0.3l2.3,0.5c0.5,0.1,1,0.2,1.4,0.4
			c0.5,0.2,0.9,0.4,1.3,0.7c0.4,0.3,0.7,0.7,0.9,1.1c0.2,0.5,0.4,1,0.4,1.6c0,0.8-0.2,1.4-0.5,1.9c-0.3,0.5-0.8,1-1.3,1.3
			c-0.5,0.3-1.1,0.6-1.8,0.7c-0.7,0.1-1.3,0.2-2,0.2c-1.6,0-3-0.4-4-1.2c-1-0.8-1.6-2-1.7-3.7h1.7c0.1,1.2,0.5,2,1.3,2.6
			c0.8,0.6,1.7,0.9,2.8,0.9c0.4,0,0.8,0,1.3-0.1c0.4-0.1,0.9-0.2,1.2-0.5c0.4-0.2,0.7-0.5,0.9-0.8c0.2-0.3,0.4-0.7,0.4-1.2
			c0-0.4-0.1-0.8-0.3-1c-0.2-0.3-0.4-0.5-0.7-0.7c-0.3-0.2-0.6-0.3-1-0.5c-0.4-0.1-0.7-0.2-1.1-0.3l-2.2-0.5
			c-0.6-0.1-1.1-0.3-1.5-0.5c-0.5-0.2-0.9-0.4-1.2-0.7c-0.4-0.3-0.6-0.6-0.8-1c-0.2-0.4-0.3-0.9-0.3-1.5c0-0.7,0.2-1.3,0.5-1.8
			c0.3-0.5,0.7-0.9,1.2-1.2c0.5-0.3,1.1-0.5,1.7-0.7c0.6-0.1,1.2-0.2,1.8-0.2c0.7,0,1.4,0.1,2,0.3c0.6,0.2,1.1,0.5,1.6,0.8
			c0.5,0.4,0.8,0.8,1.1,1.4c0.3,0.6,0.4,1.2,0.5,2h-1.7C189.6,299.7,189.5,299.3,189.3,298.9z"/>
		<path class="st0" d="M203.5,290.8v8h0.1c0.2-0.5,0.4-0.9,0.8-1.3c0.3-0.4,0.7-0.7,1.1-1c0.4-0.3,0.9-0.5,1.4-0.6
			c0.5-0.1,1-0.2,1.5-0.2c1.1,0,2,0.2,2.8,0.6c0.8,0.4,1.4,0.9,2,1.6c0.5,0.7,0.9,1.5,1.2,2.3c0.3,0.9,0.4,1.8,0.4,2.8
			c0,1-0.1,1.9-0.4,2.8c-0.3,0.9-0.6,1.7-1.2,2.3c-0.5,0.7-1.2,1.2-2,1.6c-0.8,0.4-1.7,0.6-2.8,0.6c-1.1,0-2.1-0.3-3-0.8
			c-0.9-0.5-1.5-1.3-1.9-2.2h-0.1v2.6h-1.6v-19.3H203.5z M212.7,301c-0.2-0.7-0.4-1.3-0.8-1.9c-0.4-0.6-0.8-1-1.4-1.4
			c-0.6-0.4-1.3-0.5-2.1-0.5c-0.9,0-1.7,0.2-2.3,0.5c-0.6,0.4-1.1,0.8-1.5,1.4c-0.4,0.6-0.7,1.2-0.8,1.9c-0.2,0.7-0.3,1.4-0.3,2.1
			c0,0.7,0.1,1.4,0.3,2.1c0.2,0.7,0.5,1.3,0.8,1.9c0.4,0.6,0.9,1,1.5,1.4c0.6,0.4,1.4,0.5,2.3,0.5c0.8,0,1.5-0.2,2.1-0.5
			c0.6-0.4,1-0.8,1.4-1.4c0.4-0.6,0.6-1.2,0.8-1.9c0.2-0.7,0.3-1.4,0.3-2.1C212.9,302.4,212.8,301.7,212.7,301z"/>
		<path class="st0" d="M226,296.4c0.8,0.4,1.5,0.9,2.1,1.6c0.6,0.7,1,1.4,1.3,2.3c0.3,0.9,0.4,1.8,0.4,2.8c0,1-0.1,2-0.4,2.8
			c-0.3,0.9-0.7,1.7-1.3,2.3c-0.6,0.7-1.2,1.2-2.1,1.6c-0.8,0.4-1.8,0.6-2.8,0.6c-1.1,0-2-0.2-2.8-0.6c-0.8-0.4-1.5-0.9-2.1-1.6
			c-0.6-0.7-1-1.4-1.3-2.3c-0.3-0.9-0.4-1.8-0.4-2.8c0-1,0.1-2,0.4-2.8c0.3-0.9,0.7-1.7,1.3-2.3c0.6-0.7,1.2-1.2,2.1-1.6
			c0.8-0.4,1.8-0.6,2.8-0.6C224.2,295.8,225.2,296,226,296.4z M221,297.7c-0.6,0.3-1.1,0.8-1.5,1.3c-0.4,0.6-0.7,1.2-0.9,1.9
			c-0.2,0.7-0.3,1.4-0.3,2.2c0,0.7,0.1,1.5,0.3,2.2c0.2,0.7,0.5,1.3,0.9,1.9c0.4,0.6,0.9,1,1.5,1.3c0.6,0.3,1.3,0.5,2.1,0.5
			c0.8,0,1.5-0.2,2.1-0.5c0.6-0.3,1.1-0.8,1.5-1.3c0.4-0.6,0.7-1.2,0.9-1.9c0.2-0.7,0.3-1.4,0.3-2.2c0-0.7-0.1-1.5-0.3-2.2
			c-0.2-0.7-0.5-1.3-0.9-1.9c-0.4-0.6-0.9-1-1.5-1.3c-0.6-0.3-1.3-0.5-2.1-0.5C222.3,297.2,221.6,297.4,221,297.7z"/>
		<path class="st0" d="M233.8,296.2v3.3h0.1c0.4-1.1,1.1-2,2-2.6c0.9-0.6,2-0.9,3.3-0.8v1.7c-0.8,0-1.5,0.1-2.1,0.3
			c-0.6,0.2-1.2,0.6-1.6,1c-0.5,0.5-0.8,1-1.1,1.6c-0.3,0.6-0.4,1.3-0.4,2v7.4h-1.7v-13.9H233.8z"/>
		<path class="st0" d="M242.9,296.2v2.4h0.1c0.3-0.8,0.9-1.5,1.7-2c0.8-0.5,1.7-0.8,2.7-0.8c1,0,1.8,0.1,2.4,0.4
			c0.7,0.3,1.2,0.6,1.6,1.1c0.4,0.5,0.7,1,0.8,1.7c0.2,0.7,0.2,1.4,0.2,2.2v9h-1.7v-8.7c0-0.6-0.1-1.1-0.2-1.7
			c-0.1-0.5-0.3-1-0.6-1.3c-0.3-0.4-0.6-0.7-1.1-0.9s-1-0.3-1.7-0.3c-0.7,0-1.3,0.1-1.8,0.4c-0.5,0.2-1,0.6-1.4,1
			c-0.4,0.4-0.7,0.9-0.9,1.5c-0.2,0.6-0.3,1.2-0.3,1.9v8.1h-1.7v-13.9H242.9z"/>
	</g>
	<g>
		<path class="st0" d="M96.9,98.4c1.3-6.5,4.4-10.6,4.5-10.9c1.2-1.6,3.6-2,5.3-0.8c1.7,1.1,2,3.3,0.9,5c-1.9,2.7-4.4,10-3.2,16.4
			c1.2,6.4,3.1,11.6,13.8,13.5c6.8,1.2,7.4,6.4,7.9,10.2c0.5,4.2,1.2,9.4,7.7,15.1c2.5,2.2,5.8,3.9,9.2,5.7c1.7,0.9,3.5,1.8,5.3,2.8
			c2.7-5.6,4.9-15.3,4.7-21.1c-0.2-7.2-2.7-14-7.2-19.7l-1-1.2l0.3-1.5c0.5-2.7,0.8-5.4,0.7-8.1c-1.3,0.4-3.1,0.7-4.8,0.7
			c-7.3-0.1-12.8-2.9-16.6-7.4c-6.5-7.8-5-16.4-4.7-21c0.3-4.5,0.6-8.1,1.1-13.3c0.8-7.9,1.9-17.8,1.1-21.3
			c-2.5-10.8-8-10.6-10.1-10.6c-2.1,0.1-3.8-1.5-3.9-3.4c-0.1-2,1.6-3.6,3.7-3.7c5.2-0.2,14.5,1.7,17.7,16.2c1,4.6,0,14.2-1,23.5
			c-0.5,5.1-1,8.8-1.1,12.9c-0.1,4.1-0.8,11.7,3.1,16.3c2.4,2.9,6.1,4.4,11.1,4.7c1.8,0.1,5.9-1.7,8-5.4c1.3-2.8,1.9-5.9,1.8-9.1
			c-0.1-4.6-1.8-9-4.8-12.6l-1.9-2.2l1.9-2.2c3.6-4.1,5.4-9.2,5.3-14.4c-0.1-4.4-1.7-8.6-4.4-12.1l-1.7-2.2l1.8-2.1
			c3.4-4,5.2-9.1,5-14.2c-0.4-12.6-9.1-21.1-21.2-20.8c-8.3,0.3-14.6,3.7-18,11.8C104.9,9.7,95,17,92.8,24.3
			c-2.3,7.5-0.9,16.6,8.7,28c1.4,1.7,2.9,3.2,4.5,4.5c1.6,1.3,1.7,3.5,0.3,5c-0.7,0.8-1.7,1.2-2.7,1.2c-0.9,0-1.9-0.3-2.6-0.9
			c-1.9-1.6-3.7-3.4-5.4-5.4c-6.8-8.2-9.3-17.4-10.1-23.6C71,42.9,69.1,61.1,75.7,71C67.3,83.7,80.3,99.2,96.9,98.4z"/>
		<path class="st0" d="M139.4,158.9c-3.8-1.6-7.5-3.9-10.8-6.7c-8.5-7.5-9.4-14.6-10-19.4c-0.5-3.9-0.7-3.9-1.9-4.1
			c-6.2-1.1-10.4-3.1-13.3-5.6c-3.7,1.6-7.2,2.3-10.6,2.4c-9.8,0.3-17.2-4.3-17.7-4.5c-1.7-1.1-2.2-3.3-1-4.9c1.2-1.6,3.5-2.1,5.2-1
			c0.4,0.3,9.5,5.7,19.6,2.1c-1-2.1-2.9-6.4-2.8-11.5c-15.9,0.4-30.6-9-31.3-24.7c-20.6,30.2,3.9,58.5,31.9,66.5
			c7.5,2.2,12.9,9.7,13,17.5c0,1.4-0.2,3.4-1,5.7c3,0.6,6.5,1.6,10,3.2c-0.9-5.4-0.2-9.9-0.1-10.2c0.3-1.9,2.2-3.3,4.3-3
			c2.1,0.3,3.5,2.1,3.2,4c0,0.1-1.7,11.4,3.3,16.7c2.7,2.8,5.3,7.5,6.1,12.7c0.3,1.9-1.2,3.7-3.2,4c-0.1,0-0.3,0-0.4,0
			c-1.9,0.1-3.6-1.2-3.9-3.1c-2.2-15.2-17.8-17.3-23.3-17.8c-2.5,2.5-6.1,4.9-11.5,6.7c-0.4,0.1-0.8,0.2-1.1,0.2
			c-1.6,0.1-3.1-0.9-3.7-2.4c-0.7-1.8,0.3-3.9,2.3-4.5c7.5-2.5,11.7-6.9,11.6-12.2c0-4.7-3.5-9.5-7.8-10.9
			c-15.6-4.8-27-12.7-34.1-23.4c-9.1,23.9,10.7,34,23.3,32.5c2-0.2,4,1.1,4.2,3.1c0.2,2-1.2,3.7-3.3,4c-1,0.1-2,0.2-3,0.2
			c-4.4,0.1-8.2-0.6-11.6-1.7c-3,13.2,10.5,35.2,35.2,26.1c3.1,17.3,28.6,25.3,43.3,8.9C162.9,187.7,152.9,164.5,139.4,158.9z"/>
		<path class="st0" d="M157.6,49.5c0,0.9,0.1,1.8,0.3,2.6c2.9-3.9,6.2-7.2,8.3-8.9c0.9-0.7,1.7-1.4,2.5-2c8-6.3,12-9.5,11.3-20.1
			c-0.1-1.9,1.4-3.5,3.4-3.7c2.1-0.1,3.8,1.3,3.9,3.2c0.9,14.1-5.3,19-13.9,25.8c-0.8,0.6-1.6,1.3-2.5,2c-3.2,2.6-7.3,7.3-9.9,11.8
			l0,0.1l-0.8,1.6c-1.5,3-2.2,6.2-2.1,9.4c0.1,3.1,0.9,6.1,2.4,8.8l0.7,1.4l-0.6,1.4c-1.6,3.8-2.3,7.7-2.2,11.8
			c0.1,3.3,0.8,6.4,2,9.5c2.7-3.4,6.2-6.3,10.4-8.5c6-3.2,13-4.7,18.2-4c7.4-8.4,17.6-13.2,28.9-13.6c0.1,0,0.2,0,0.3,0
			c6.5-0.2,19.2,1.6,24.9,9.2c2.5-13.7-2.5-25-16.8-28c2.8-11.3-4.4-21.8-11-25.5c-2.7,7.9-7.1,12.2-11.8,15.6
			c1.7,2.3,5.8,8.5,5.9,15.2c0,1.9-1.6,3.4-3.6,3.5c0,0,0,0-0.1,0c-2,0-3.7-1.5-3.7-3.4c-0.1-4.7-3.2-9.5-4.5-11.3
			c-5.9,3.9-11.4,8.1-14.9,18.7c-0.5,1.4-1.9,2.4-3.4,2.4c-0.4,0-0.8,0-1.2-0.1c-1.9-0.6-3-2.5-2.4-4.3
			c4.5-13.7,12.3-18.8,19.2-23.3c5.8-3.8,10.9-7.1,13.7-15.7l0.6-2.9c0.3-1.7,0.5-3.4,0.4-5.1C209.3,10,197.5-0.4,183.4,0
			c-14.1,0.4-25.2,11.6-24.8,24.8c0.1,3.4,0.9,6.6,2.5,9.6l0.9,1.7l-1,1.6C158.6,41.3,157.4,45.3,157.6,49.5z"/>
		<path class="st0" d="M245.4,134.4c-3,3.6-6.2,6.6-6.8,7.1c-0.7,0.6-1.5,0.9-2.4,1c-1,0-2-0.3-2.8-1c-1.4-1.4-1.3-3.5,0.1-4.9
			c1.6-1.4,5.1-5,7.6-8.3l-0.1-0.1l1.3-2c3-4.7,4.5-10.1,4.4-15.5c-0.2-7.3-3.5-14.2-9.1-19.3c-0.3-0.2-0.5-0.5-0.8-0.7l-0.3-0.2
			c-4.5-3.6-11.2-5.6-18.3-5.4c-5.7,0.2-16.4,2.1-24.8,12.6l-1.7,2.1l-2.6-0.9c-2.3-0.8-8.4-0.4-14.8,2.9c-4.5,2.4-9.8,7-11.9,14.7
			c-3.3,12.2,6.1,19.3,9.4,21.7c1.6,1.1,2.4,3,1.4,4.7c-0.7,1.1-1.8,1.7-3.1,1.8c-0.6,0-1.3-0.1-1.9-0.4c-2.8-1.4-6.6-4.4-9.5-8.8
			c-0.9,2.7-1.3,5.5-1.2,8.3c0.2,5.5,2.1,10.6,5.7,15l1.1,1.3c3.1,3.4,7.4,6.7,10.7,9.3c1.6,1.2,3,2.3,4.1,3.3
			c10.2,8.7,8.2,19.4,5.7,23.8c-0.6,1.1-1.9,1.8-3.1,1.8c-0.6,0-1.2-0.1-1.8-0.4c-1.8-0.9-2.5-2.9-1.5-4.6c0.5-0.9,4.2-8.4-4.2-15.6
			c-1-0.9-2.3-1.9-3.8-3c-2.5-2-5.6-4.3-8.4-6.9c-0.1,1-0.2,2-0.2,3c0.1,2.6,0.8,5.2,2,7.6l0.9,1.6l-0.9,1.6c-2,3.4-3,7.2-2.9,11
			c0.4,11.7,10.8,20.8,23.2,20.4c8.7-0.3,16.3-5.1,19.9-12.6l0.6-1.3l1.5-0.5c4.1-1.4,7.5-4.1,9.8-7.5c-3.1-0.3-6.1-1.3-8.7-2.9
			c-5-3-8.1-8-8.7-13.5c-0.5-5.1,1-10.8,2.8-15.2c-3.1,1-6.4,1.6-9.3,1.7c-3.1,0.1-5.9-0.3-7.9-1.1c-1.9-0.7-2.8-2.7-2-4.5
			c0.8-1.8,2.9-2.6,4.8-1.9c4.1,1.5,17,0.2,21.4-7.7c4.5-8.1,5.7-12.3,4-16.4c-1.6-3.9-4.8-5.3-7.2-5.8c-4.4-0.9-9.4,0.6-13.1,3.9
			c-1.5,1.3-3.8,1.3-5.2-0.1c-1.4-1.4-1.3-3.6,0.2-4.9c4.6-4.1,10.6-6.2,16.4-6c1.7-6.4,0.2-12.6,0.2-12.6c-0.5-1.8,0.7-3.7,2.7-4.2
			c1.9-0.4,3.9,0.7,4.4,2.5c0.1,0.4,2,7.8-0.2,15.9c3.9,1.7,7,4.8,8.6,8.8c3.5,8.5-0.7,16.2-7.9,28.1c0,0-6.2,11-5.4,18.8
			c0.4,3.5,2.3,6.6,5.4,8.4C231.4,194,255.4,161.2,245.4,134.4z"/>
	</g>
</g>
</svg>
