<?xml version="1.0" encoding="utf-8"?>
<!-- Generator: Adobe Illustrator 25.2.1, SVG Export Plug-In . SVG Version: 6.00 Build 0)  -->
<svg version="1.1" id="Layer_1" xmlns="http://www.w3.org/2000/svg" xmlns:xlink="http://www.w3.org/1999/xlink" x="0px" y="0px"
	 viewBox="0 0 445.5 455.4" style="enable-background:new 0 0 445.5 455.4;" xml:space="preserve">
<style type="text/css">
	.st0{fill:#FFFFFF;}
</style>
<g>
	<path class="st0" d="M25,438.9h2.1v14.4H34v1.8h-9V438.9z"/>
	<path class="st0" d="M56.7,447.5h-6.3v5.8h7v1.8h-9.1v-16.2H57v1.8h-6.6v5.1h6.3V447.5z"/>
	<path class="st0" d="M74.7,450l-1.7,5.1h-2.2l5.5-16.2h2.5l5.5,16.2h-2.2l-1.7-5.1H74.7z M80,448.4l-1.6-4.7c-0.4-1.1-0.6-2-0.8-3
		h0c-0.2,1-0.5,1.9-0.8,2.9l-1.6,4.7H80z"/>
	<path class="st0" d="M98.8,439.2c1.1-0.2,2.6-0.3,4-0.3c2.2,0,3.7,0.4,4.7,1.3c0.8,0.7,1.3,1.8,1.3,3.1c0,2.1-1.3,3.5-3,4.1v0.1
		c1.2,0.4,2,1.6,2.4,3.3c0.5,2.3,0.9,3.8,1.2,4.4h-2.2c-0.3-0.5-0.6-1.8-1.1-3.9c-0.5-2.2-1.3-3.1-3.2-3.1h-2v7h-2.1V439.2z
		 M100.9,446.5h2.1c2.2,0,3.6-1.2,3.6-3.1c0-2.1-1.5-3-3.7-3c-1,0-1.7,0.1-2.1,0.2V446.5z"/>
	<path class="st0" d="M123.7,455.1v-16.2h2.3l5.2,8.2c1.2,1.9,2.1,3.6,2.9,5.3l0,0c-0.2-2.2-0.2-4.1-0.2-6.6v-6.8h2v16.2h-2.1
		l-5.1-8.2c-1.1-1.8-2.2-3.6-3-5.4l-0.1,0c0.1,2,0.2,4,0.2,6.7v6.9H123.7z"/>
	<path class="st0" d="M153.5,438.9v16.2h-2.1v-16.2H153.5z"/>
	<path class="st0" d="M169.2,455.1v-16.2h2.3l5.2,8.2c1.2,1.9,2.1,3.6,2.9,5.3l0,0c-0.2-2.2-0.2-4.1-0.2-6.6v-6.8h2v16.2h-2.1
		l-5.1-8.2c-1.1-1.8-2.2-3.6-3-5.4l-0.1,0c0.1,2,0.2,4,0.2,6.7v6.9H169.2z"/>
	<path class="st0" d="M209.3,454.4c-0.9,0.3-2.8,0.9-5,0.9c-2.4,0-4.5-0.6-6-2.1c-1.4-1.3-2.3-3.5-2.3-6c0-4.8,3.3-8.3,8.8-8.3
		c1.9,0,3.3,0.4,4,0.7l-0.5,1.7c-0.9-0.4-1.9-0.7-3.6-0.7c-3.9,0-6.5,2.4-6.5,6.5c0,4.1,2.5,6.5,6.2,6.5c1.4,0,2.3-0.2,2.8-0.4v-4.8
		h-3.3v-1.7h5.3V454.4z"/>
	<path class="st0" d="M241.5,438.9h8.7v1.8h-6.6v5.4h6.1v1.7h-6.1v7.3h-2.1V438.9z"/>
	<path class="st0" d="M279,446.9c0,5.6-3.4,8.5-7.5,8.5c-4.3,0-7.3-3.3-7.3-8.2c0-5.1,3.2-8.5,7.5-8.5
		C276.2,438.7,279,442.1,279,446.9z M266.5,447.1c0,3.5,1.9,6.5,5.2,6.5c3.3,0,5.2-3,5.2-6.7c0-3.2-1.7-6.6-5.2-6.6
		C268.2,440.4,266.5,443.6,266.5,447.1z"/>
	<path class="st0" d="M293.7,439.2c1.1-0.2,2.6-0.3,4-0.3c2.2,0,3.7,0.4,4.7,1.3c0.8,0.7,1.3,1.8,1.3,3.1c0,2.1-1.3,3.5-3,4.1v0.1
		c1.2,0.4,2,1.6,2.4,3.3c0.5,2.3,0.9,3.8,1.2,4.4h-2.2c-0.3-0.5-0.6-1.8-1.1-3.9c-0.5-2.2-1.3-3.1-3.2-3.1h-2v7h-2.1V439.2z
		 M295.8,446.5h2.1c2.2,0,3.6-1.2,3.6-3.1c0-2.1-1.5-3-3.7-3c-1,0-1.7,0.1-2.1,0.2V446.5z"/>
	<path class="st0" d="M335.7,438.9h2.1v14.4h6.9v1.8h-9V438.9z"/>
	<path class="st0" d="M361.1,438.9v16.2H359v-16.2H361.1z"/>
	<path class="st0" d="M376.7,438.9h8.7v1.8h-6.6v5.4h6.1v1.7h-6.1v7.3h-2.1V438.9z"/>
	<path class="st0" d="M408.8,447.5h-6.3v5.8h7v1.8h-9.1v-16.2h8.7v1.8h-6.6v5.1h6.3V447.5z"/>
	<polygon class="st0" points="0,419.8 0,386.5 25.1,386.5 25.1,392.1 5.8,392.1 5.8,400.3 23.1,400.3 23.1,406 5.8,406 5.8,414.2 
		25.1,414.2 25.1,419.8 	"/>
	<path class="st0" d="M52,419.8v-33.4h14.2c2,0,3.9,0.4,5.8,1.1c1.9,0.8,3.5,1.9,4.9,3.3c3.1,3.2,4.7,7.3,4.7,12.2
		c0,4.9-1.6,9-4.7,12.2c-1.4,1.4-3.1,2.6-4.9,3.3c-1.9,0.8-3.8,1.1-5.8,1.1H52z M66.1,414.2c2.9,0,5.2-1.1,7.1-3.2
		c1.8-2.1,2.7-4.7,2.7-7.9c0-3.2-0.9-5.7-2.7-7.9c-1.8-2.2-4.1-3.2-7.1-3.2h-8.3v22.2H66.1z"/>
	<path class="st0" d="M122.6,420.2c-4.2,0-7.7-1.4-10.3-4.1c-2.7-2.7-4-6.4-4-10.8v-18.8h5.8v18.9c0,3.1,0.9,5.3,2.6,7
		c1.5,1.4,3.4,2.1,5.9,2.1c2.5,0,4.4-0.7,6-2.1c1.8-1.6,2.6-3.9,2.6-7v-18.9h5.8v18.8c0,4.4-1.3,8-4,10.8
		C130.3,418.8,126.8,420.2,122.6,420.2z"/>
	<path class="st0" d="M179.6,420.2c-4.9,0-8.9-1.7-11.9-5c-2.8-3.2-4.3-7.2-4.3-12c0-4.8,1.4-8.9,4.3-12c3-3.3,7-5,11.9-5
		c3.7,0,6.9,1,9.6,2.9c2.6,1.8,4.4,4.3,5.5,7.5l0.5,1.5h-6.1l-0.3-0.7c-0.7-1.7-1.8-3.1-3.3-4.1c-1.5-1-3.2-1.5-5.2-1.5
		c-2.1,0-3.8,0.3-5.1,0.9c-1.3,0.6-2.4,1.4-3.3,2.4c-1.9,2.1-2.8,4.7-2.8,8.1c0,3.4,0.9,6,2.8,8.1c1.9,2.2,4.7,3.2,8.4,3.2
		c2,0,3.7-0.5,5.2-1.5c1.5-1,2.6-2.3,3.3-4.1l0.3-0.7h6.1l-0.5,1.5c-1.1,3.2-3,5.7-5.5,7.5C186.5,419.2,183.3,420.2,179.6,420.2z"/>
	<path class="st0" d="M244.9,419.8l-3.8-9h-13.9l-3.8,9H217l14.2-33.4h5.9l14.2,33.4H244.9z M238.8,405.3l-4.6-11.1l-4.6,11.1H238.8
		z"/>
	<polygon class="st0" points="280.8,419.8 280.8,392.1 269.9,392.1 269.9,386.5 297.4,386.5 297.4,392.1 286.6,392.1 286.6,419.8 	
		"/>
	<rect x="323.1" y="386.5" class="st0" width="5.8" height="33.4"/>
	<path class="st0" d="M372.7,420.2c-4.9,0-9.1-1.7-12.2-5c-3.1-3.2-4.7-7.3-4.7-12.1c0-4.8,1.6-8.9,4.7-12.1c3.2-3.3,7.3-5,12.2-5
		c4.9,0,9,1.7,12.2,5c3.1,3.2,4.7,7.3,4.7,12.1c0,4.8-1.6,8.8-4.7,12.1C381.7,418.5,377.6,420.2,372.7,420.2z M372.7,391.8
		c-3.4,0-6.1,1.1-8.1,3.3c-2,2.1-3,4.8-3,8.1c0,3.3,1,6,3,8.1c2.1,2.2,4.7,3.3,8.1,3.3c3.4,0,6.1-1.1,8.1-3.3c2-2.1,3-4.8,3-8.1
		c0-3.3-1-6-3-8.1C378.7,392.9,376.1,391.8,372.7,391.8z"/>
	<polygon class="st0" points="439.7,419.8 422.2,395.9 422.2,419.8 416.5,419.8 416.5,386.5 422.3,386.5 439.8,410.3 439.8,386.5 
		445.5,386.5 445.5,419.8 	"/>
	<g>
		<path class="st0" d="M108.2,177v113.3c0,18.9,15.4,34.3,34.3,34.3h158.1c18.9,0,34.3-15.4,34.3-34.3v-38.5l-7.3-8l-7.3,8v38.5
			c0,10.8-8.8,19.6-19.6,19.6H142.5c-10.8,0-19.6-8.8-19.6-19.6v-122C117.8,170.9,112.9,173.7,108.2,177z"/>
		<path class="st0" d="M300.6,97.8H187.3c-3.2,4.7-6.1,9.6-8.7,14.7h122c10.8,0,19.6,8.8,19.6,19.6v30.1h7.3h7.3v-30.1
			C334.9,113.2,319.5,97.8,300.6,97.8z"/>
		<path class="st0" d="M300.6,78.3H190.2l7,7l-2.2,2.6c-1.4,1.7-2.8,3.4-4.1,5.1h109.8c21.6,0,39.2,17.6,39.2,39.2v30.1h14.7v-30.1
			C354.5,102.4,330.3,78.3,300.6,78.3z"/>
		<path class="st0" d="M96,176.9c2.4-1.9,4.8-3.7,7.3-5.5c1.6-1.1,3.2-2.2,4.9-3.2c4.7-3,9.6-5.7,14.7-8c1.6-0.7,3.2-1.5,4.9-2.1
			c4.8-2,9.7-3.7,14.7-5.1c5.6-1.6,11.4-2.7,17.3-3.5c0.8-5.9,2-11.7,3.5-17.3c1.4-5,3.1-9.9,5.1-14.7c0.7-1.6,1.4-3.3,2.1-4.9
			c2.3-5.1,5-10,8-14.7c1-1.7,2.1-3.3,3.2-4.9c1.7-2.5,3.6-4.9,5.5-7.3l-7.4-7.4l-9-9l-17.4-17.4c-20.6,8.3-39,20.5-54.9,36.4
			c-15.8,15.8-28.1,34.3-36.4,54.9l17.4,17.4l9,9L96,176.9z"/>
		<path class="st0" d="M341.1,258.5l-1.2-1.3v33.1c0,21.6-17.6,39.2-39.2,39.2H142.5c-21.6,0-39.2-17.6-39.2-39.2V180.5
			c-1.7,1.3-3.5,2.7-5.1,4.1l-2.6,2.2l-7-7v110.4c0,29.7,24.2,53.9,53.9,53.9h158.1c29.7,0,53.9-24.2,53.9-53.9v-46.5l-9.9,10.7
			L341.1,258.5z"/>
		<path class="st0" d="M54.4,142.6c8.7-22.4,21.8-42.5,38.9-59.6c17.1-17.1,37.2-30.2,59.6-38.9l2.2-0.9l18.7,18.7L200,0L66.7,56.4
			l-23.7,56.2l-6.3,14.9l0,0l-0.3,0.6l-1.3,3.2l-1.6,3.7l-1.5,3.5c0.2,0.1,0.4,0.3,0.6,0.4c12.6,8.8,20.1,20,24.6,31.1l15-6.3
			l-18.7-18.7L54.4,142.6z"/>
		<path class="st0" d="M26.8,150.7l-16.5,39L45.1,175C41.6,166.4,35.9,157.7,26.8,150.7z"/>
		<path class="st0" d="M315.4,162.3v-30.1c0-8.1-6.6-14.8-14.8-14.8H176.3c-2.1,4.8-3.9,9.7-5.4,14.7l129.8,0.1l0,30.1H315.4z"/>
		<path class="st0" d="M310.5,254.6l-9.9-10.8l0,46.6H142.5l-0.1-0.1l0.1-129.7c-5,1.5-10,3.3-14.7,5.4v124.3
			c0,8.1,6.6,14.8,14.8,14.8h158.1c8.1,0,14.8-6.6,14.8-14.8v-33.1l-1.2,1.3L310.5,254.6z"/>
		<path class="st0" d="M67.7,213.2c0-3.4-1.6-6.4-4.1-8.3c-1-0.8-2.1-1.3-3.2-1.7c0-8.1-1.2-20-6.1-32
			c-4.3-10.6-11.5-21.3-23.5-29.7c0,0,0,0,0,0c-12.2-8.6-12-11.8-12-11.8c0.7-1.3,6.9-2.3,14.3-1.9l2.7-6.4
			c-7.2-0.7-20.5-0.9-23.1,5.9c-1.9,5.1,2.5,11.1,14.4,19.5c0.4,0.3,0.7,0.5,1.1,0.8c10.1,7.4,16.3,16.8,20,26.1
			c4.5,11,5.5,21.9,5.6,29.4c-1.2,0.4-2.3,1-3.3,1.7c-2.5,1.9-4,4.9-4,8.3c0,3.7,1.9,6.9,4.7,8.8l-5.1,21h22l-5.1-21
			C65.8,220.1,67.7,216.9,67.7,213.2z"/>
		<polygon class="st0" points="337.9,198.3 317.3,198.3 315.4,202.8 300.7,236.6 314.1,251.3 315.4,249.9 320.3,244.6 327.6,236.6 
			334.9,244.6 339.8,249.9 341.1,251.3 354.5,236.6 339.8,202.8 		"/>
		<polygon class="st0" points="327.6,174.6 320.3,191.5 319.1,194.3 336.2,194.3 334.9,191.5 		"/>
	</g>
	<g>
		<path class="st0" d="M273.2,236.1c0,4.9-0.9,9.6-2.8,13.9c-1.9,4.3-4.5,8.1-7.7,11.4c-3.2,3.2-7,5.8-11.4,7.7
			c-4.3,1.9-9,2.8-13.9,2.8h-59.7V152.6h59.7c4.9,0,9.6,0.9,13.9,2.8c4.3,1.9,8.1,4.5,11.4,7.7c3.2,3.2,5.8,7,7.7,11.4
			c1.9,4.3,2.8,9,2.8,13.9c0,2.2-0.3,4.5-0.9,6.8c-0.6,2.3-1.5,4.6-2.6,6.7c-1.1,2.2-2.4,4.1-4,5.9c-1.6,1.8-3.3,3.2-5.2,4.4
			c1.9,1.1,3.7,2.5,5.2,4.3c1.6,1.8,2.9,3.8,4,5.9c1.1,2.2,2,4.4,2.5,6.8C272.9,231.6,273.2,233.9,273.2,236.1z M201.6,200.4h35.8
			c1.7,0,3.2-0.3,4.7-0.9c1.4-0.6,2.7-1.5,3.8-2.5c1.1-1.1,1.9-2.4,2.5-3.8c0.6-1.5,0.9-3,0.9-4.7c0-1.7-0.3-3.2-0.9-4.7
			c-0.6-1.4-1.5-2.7-2.5-3.8c-1.1-1.1-2.3-1.9-3.8-2.5c-1.4-0.6-3-0.9-4.7-0.9h-35.8V200.4z M201.6,248h35.8c1.7,0,3.2-0.3,4.7-0.9
			c1.4-0.6,2.7-1.5,3.8-2.5c1.1-1.1,1.9-2.3,2.5-3.8c0.6-1.4,0.9-3,0.9-4.7c0-1.7-0.3-3.2-0.9-4.7c-0.6-1.4-1.5-2.7-2.5-3.8
			c-1.1-1.1-2.3-1.9-3.8-2.5c-1.4-0.6-3-0.9-4.7-0.9h-35.8V248z"/>
	</g>
</g>
</svg>
