<svg id="Capa_1" enable-background="new 0 0 512 512" height="512" viewBox="0 0 512 512" width="512" xmlns="http://www.w3.org/2000/svg"><g><path d="m175.162 413.476h88.687v51.68h-88.687z" fill="#cbc4cc"/><path d="m175.162 414.476h31.018v49.68h-31.018z" fill="#b5adb6"/><g><g><path d="m365.373 512h-291.734c-3.222 0-5.835-2.612-5.835-5.835 0-23.201 18.808-42.01 42.01-42.01h219.384c23.201 0 42.01 18.808 42.01 42.01-.001 3.223-2.613 5.835-5.835 5.835z" fill="#918291"/></g></g><g><g><path d="m131.478 506.165c0-23.201 18.808-42.01 42.01-42.01h-63.673c-23.201 0-42.01 18.808-42.01 42.01 0 3.222 2.612 5.835 5.835 5.835h63.673c-3.223 0-5.835-2.612-5.835-5.835z" fill="#7a6d79"/></g></g><path d="m316.619 299.298c-2.523 0-4.577-2.053-4.577-4.576v-228.491h-292.666c-6.445 0-11.669 5.225-11.669 11.669v257.893h423.598v-36.495z" fill="#fee97d"/><g><g><path d="m67.25 66.231h-47.874c-6.445 0-11.669 5.225-11.669 11.669v257.893h47.874v-257.893c0-6.445 5.224-11.669 11.669-11.669z" fill="#fed402"/></g></g><path d="m423.805 299.298v28.995h-408.598v-250.393c0-2.299 1.871-4.17 4.169-4.17h292.666v-15h-292.666c-10.57 0-19.169 8.6-19.169 19.17v311.571c0 13.787 11.217 25.004 25.004 25.004h388.589c13.788 0 25.004-11.217 25.004-25.004v-90.174h-14.999z" fill="#918291"/><g><path d="m73.402 389.472v-61.179h-58.195v-250.393c0-2.299 1.871-4.17 4.169-4.17h54.496c1.911-8.57 9.563-15 18.699-15h-73.195c-10.57 0-19.169 8.6-19.169 19.17v311.571c0 13.787 11.217 25.004 25.004 25.004h73.195c-13.787.001-25.004-11.216-25.004-25.003z" fill="#7a6d79"/></g><path d="m508.482 184.137h-194.09l-3.349 1v109.585c0 3.08 2.497 5.576 5.576 5.576h189.598c3.08 0 5.576-2.497 5.576-5.576v-109.585z" fill="#d8ecfe"/><path d="m506.217 0h-189.598c-3.08 0-5.576 2.497-5.576 5.576v45.726l3.288 1h194.212l3.25-1v-45.726c0-3.079-2.497-5.576-5.576-5.576z" fill="#26a6fe"/><path d="m358.647 294.721v-109.584h-47.605v109.585c0 3.08 2.497 5.576 5.576 5.576h47.605c-3.079 0-5.576-2.497-5.576-5.577z" fill="#c4e2ff"/><g><g><path d="m238.76 375.967h-38.509c-4.142 0-7.5-3.357-7.5-7.5s3.358-7.5 7.5-7.5h38.509c4.142 0 7.5 3.357 7.5 7.5s-3.358 7.5-7.5 7.5z" fill="#b5adb6"/></g></g><g><g><path d="m138.783 110.413c-21.837 0-39.539 17.702-39.539 39.539 0 .335.017.666.025 1h35.431c2.289 0 4.151 1.862 4.151 4.151v34.386c21.805-.037 39.47-17.723 39.47-39.537 0-21.837-17.702-39.539-39.538-39.539z" fill="#fd4755"/><g><path d="m154.649 113.735c-4.858-2.131-10.222-3.323-15.867-3.323-21.837 0-39.539 17.702-39.539 39.539h31.733c.001-16.191 9.739-30.102 23.673-36.216z" fill="#fb2b3a"/></g><g><g><path d="m134.7 239.715h-79.462c-2.845 0-5.151-2.306-5.151-5.151v-79.462c0-2.845 2.306-5.151 5.151-5.151h79.462c2.845 0 5.151 2.306 5.151 5.151v79.462c0 2.845-2.306 5.151-5.151 5.151z" fill="#26a6fe"/></g></g><g><g><path d="m81.529 234.564v-79.462c0-2.845 2.306-5.151 5.151-5.151h-31.442c-2.845 0-5.151 2.306-5.151 5.151v79.462c0 2.845 2.306 5.151 5.151 5.151h31.442c-2.845 0-5.151-2.306-5.151-5.151z" fill="#0593fc"/></g></g><g><g><path d="m223.654 157.678-42.903 74.311c-1.983 3.434.496 7.726 4.461 7.726h85.807c3.965 0 6.443-4.292 4.461-7.726l-42.903-74.311c-1.984-3.434-6.94-3.434-8.923 0z" fill="#68ca44"/></g></g><g><g><path d="m212.029 231.989 31.725-54.949-11.179-19.362c-1.983-3.434-6.939-3.434-8.922 0l-42.903 74.311c-1.983 3.434.496 7.726 4.461 7.726h31.279c-3.965 0-6.443-4.292-4.461-7.726z" fill="#4fc123"/></g></g></g><g><g><g><path d="m279.94 297.44h-229.853c-4.142 0-7.5-3.357-7.5-7.5s3.358-7.5 7.5-7.5h229.853c4.142 0 7.5 3.357 7.5 7.5s-3.358 7.5-7.5 7.5z" fill="#7a6d79"/></g></g><g><g><circle cx="117.51" cy="289.94" fill="#0593fc" r="14.961"/></g></g></g></g><g><g><path d="m358.647 5.576c0-3.08 2.497-5.576 5.576-5.576h-47.605c-3.08 0-5.576 2.497-5.576 5.576v45.727h47.605z" fill="#0593fc"/><g><g><path d="m311.043 51.303h200.75v133.834h-200.75z" fill="#cbc4cc"/></g></g><g><g><path d="m311.043 51.303h47.605v133.834h-47.605z" fill="#b5adb6"/></g></g><g><g><g><circle cx="340.788" cy="26.209" fill="#fd4755" r="7.5"/></g></g><g><g><circle cx="361.788" cy="26.209" fill="#fee97d" r="7.5"/></g></g><g><g><circle cx="382.788" cy="26.209" fill="#68ca44" r="7.5"/></g></g></g></g><g><g><path d="m471.643 158.063h-120.45c-4.142 0-7.5-3.357-7.5-7.5s3.358-7.5 7.5-7.5h120.45c4.142 0 7.5 3.357 7.5 7.5s-3.358 7.5-7.5 7.5z" fill="#fff"/></g></g><g><g><path d="m432.431 98.081-42.363-21.359c-2.54-1.281-5.538.565-5.538 3.41v42.719c0 2.844 2.998 4.69 5.538 3.41l42.363-21.359c2.8-1.413 2.8-5.41 0-6.821z" fill="#fff"/></g></g></g><g><g><g><path d="m471.643 265.458h-120.45c-4.142 0-7.5-3.357-7.5-7.5s3.358-7.5 7.5-7.5h120.45c4.142 0 7.5 3.357 7.5 7.5s-3.358 7.5-7.5 7.5z" fill="#7a6d79"/></g></g><g><g><path d="m471.643 232.079h-120.45c-4.142 0-7.5-3.357-7.5-7.5s3.358-7.5 7.5-7.5h120.45c4.142 0 7.5 3.357 7.5 7.5s-3.358 7.5-7.5 7.5z" fill="#7a6d79"/></g></g><g><g><circle cx="442.607" cy="224.579" fill="#fff" r="12.877"/></g></g><g><g><circle cx="386.977" cy="257.958" fill="#fff" r="12.877"/></g></g></g></g></svg>