<?xml version="1.0" encoding="utf-8"?>
<!-- Generator: Adobe Illustrator 25.2.1, SVG Export Plug-In . SVG Version: 6.00 Build 0)  -->
<svg version="1.1" id="Layer_1" xmlns="http://www.w3.org/2000/svg" xmlns:xlink="http://www.w3.org/1999/xlink" x="0px" y="0px"
	 viewBox="0 0 68.8 74.6" style="enable-background:new 0 0 68.8 74.6;" xml:space="preserve">
<style type="text/css">
	.st0{fill:#FFFFFF;}
	.st1{fill:#F4F4F4;}
	.st2{fill:#611593;}
	.st3{clip-path:url(#SVGID_2_);}
	.st4{fill:#DBDBDB;}
</style>
<ellipse transform="matrix(0.3104 -0.9506 0.9506 0.3104 -11.7123 58.4197)" class="st0" cx="34.4" cy="37.3" rx="34.4" ry="34.4"/>
<g>
	<g>
		<path class="st1" d="M26.9,60.6c-1.1,1-2.3,1.9-3.6,2.9c-0.7,0.5-1.4,1.1-2.1,1.5c3.2,1.6,6.8,2.5,10.5,2.9
			c-0.9-1.3-1.9-2.7-2.8-4C28.4,63.1,27.7,62,26.9,60.6z"/>
	</g>
	<g>
		<path class="st1" d="M41.6,21.7c-0.1-0.3-0.3-0.5-0.5-0.6c-0.4-0.1-0.7,0.5-0.9,0.8c-0.3,0.4-0.4,0.7-0.5,1.1
			c0.1-0.1,0.2-0.2,0.3-0.2C40.3,22.5,40.9,22.1,41.6,21.7z"/>
	</g>
	<g>
		<path class="st2" d="M34.4,6.7C17.5,6.7,3.7,20.4,3.7,37.3c0,9.7,4.6,18.4,11.6,24c0,0,0,0,0,0c0.7-1,2.5-2.9,6.5-6.8
			c-0.1-1,0-1.8,0.2-2.4c1.1-4.1,5.8-5.6,6.4-5.7c1.5-1.6,1.4-3.9,1.7-6c0.1-0.8,0.1-0.8,0.2-1.4c0.2-1.4,0.3-3.4,0.1-6.1
			c-2.4,0.3-4.5,1.7-6.8,2.4c-0.3,0.2-0.7,0.6-1.1,1.1c-1,1.1-1.7,2.4-2.6,3.6c-1.5,2.1-1.8,3.2-1.9,3.5c-0.1,0.6-0.2,1-0.2,1.1
			c0,0.8,0.2,1.5,0.3,1.9c-0.1,0.5-0.3,1-0.4,1.6c-0.4,0.2-0.8,0.4-1.2,0.6c0-0.1-0.1-0.2-0.1-0.3c-0.1,0-0.3,0-0.5,0
			c-0.7-0.1-1.1-0.5-1.2-0.7c-0.1-0.1-0.3-0.4-0.5-0.8c-0.1-0.4-0.1-0.7-0.1-0.9c0.5-1.2,1.1-2,1.5-2.5c0.2-0.2,0.3-0.3,0.5-0.6
			c1.4-2,1.7-4.6,3-6.7c2-3.1,5.6-5,8.8-6.7c1.2-1.3,3.3-2.8,5.2-2.7c0.9,0,1.6,0.4,1.8,0.5c0.6,0.3,0.9,0.7,1.2,0.9
			c0.2,0,0.6,0.1,1.1-0.1c1.1-0.3,1.7-1.4,1.7-2.5c0-0.1,0-0.2-0.1-0.3c-0.4,0.2-0.6,0.6-1.1,0.7c-0.4,0.1-0.7,0-0.9-0.1
			c0.6-0.2,0.9-0.5,1.1-0.7c0.5-0.5,0.6-0.9,1.2-2.5c0.2-0.5,0.3-0.8,0.4-1c-0.4,0.2-1.5,0.7-2.3,1.9c-0.7,1-0.8,2-0.8,2.4
			c-0.1-0.1-0.3-0.3-0.4-0.5c-0.4-0.8,0-1.7,0.1-1.9c-0.2,0-0.4,0.1-0.6,0.3c-0.9,0.5-1.1,1.5-1.1,1.8c0-0.7,0.2-1.7,0.7-2.7
			c0.2-0.4,0.4-0.7,0.6-1c-0.5,0.4-1.2,0.3-1.3,0.3c0.3-0.3,0.7-0.6,1-0.9c0.5-0.4,0.9-0.9,1.3-1.3c-0.2,0-0.4-0.1-0.7-0.3
			c-0.8-0.5-1-1.4-1-1.6c0.1,0.6,2,0.7,1.9,0c0-0.2-0.4-0.4-0.9-0.4c1.8-1.6,4.2-1.4,5.3,0.8c0.4,0.8,0.2,1.2,0.8,1.8
			c0.2,0.2,0.5,0.6,0.7,0.7c0.3,0.1,0.7-0.1,1-0.1c0.7,0,1.4,0.2,2,0.6c2.3,1.3,3.2,3.8,1.8,6.2c-0.2,0.4-0.5,0.7-0.7,0.9
			c-0.3,0.1-0.5,0.3-0.8,0.4c-0.1,0.2-0.2,0.3-0.2,0.5c-0.1,0.4-0.2,0.7-0.2,1c0,0-0.1,0.1-0.3,0.1c-0.3,0-0.4-0.1-0.5-0.1
			c-0.1,0.1-0.4,0.3-0.6,0.5c-0.9,0.7-1.4,1-1.9,1c-0.2,0-0.8,0-1.5-0.8c-0.2,0.1-0.5,0.3-0.7,0.6c-0.3,0.4-0.4,0.8-0.4,1
			c0.1,0.2,0.3,0.6,0.6,0.9c0.7,0.7,1.3,1.2,1.6,2.1c0.7,2,1.6,3.6,2.6,5.6c0.3,0.7,0.6,1.2,0.7,1.6c0.3-0.2,0.7-0.5,1.1-0.8
			c1.8-1.4,3.4-3,4.3-5.1c0-0.2-0.1-0.4-0.1-0.7c0.5-1.1,0.8-2.4,1.4-3.5c0.5-0.9,1.5-0.5,2.2,0c0,0,0.8,1,0.5,0.9
			c0,0,0.2,0.1,0.3,0.2c0.1,0.2,0,0.5-0.1,0.6c0.1,0,0.2,0.1,0.3,0.3c0.1,0.2,0,0.3-0.1,0.6c-0.1,0.2-0.2,0.5-0.4,0.9
			c-0.5,0.6-0.9,1-1.2,1.3c-0.2,0.2-0.4,0.4-0.6,0.8c-0.1,0.2-0.2,0.4-0.3,0.6c-0.2,0.2-0.6,0.6-1,1.1c-0.8,1-1.4,2.2-2.3,3.2
			c-0.9,1-2.1,1.8-2.9,3c-0.3,0.4-1.4,1.5-2,1.1c-2-1.4-2.9-3.7-4.2-5.6c-0.2,0.1-0.5,0.2-0.8,0.5c-0.1,0.1-0.3,0.4-0.5,1.1
			c-0.1,0.5-0.2,0.9-0.2,1.1c-0.1,0.5-0.3,0.9-0.8,2c-0.8,1.6-1.5,2.8-2,3.8c-0.8,1.4-0.9,1.6-1.1,1.8c-0.7,1-1.4,1.7-1.9,2.1
			c0.8,1.4,2.3,4.4,3.8,7.5c0.8,1.7,2,3.7,2.8,5.8c14.7-2.3,25.9-15,25.9-30.3C65.1,20.4,51.4,6.7,34.4,6.7z"/>
	</g>
</g>
<g>
	<defs>
		
			<ellipse id="SVGID_1_" transform="matrix(0.1503 -0.9886 0.9886 0.1503 -7.621 65.6982)" cx="34.4" cy="37.3" rx="30.7" ry="30.7"/>
	</defs>
	<clipPath id="SVGID_2_">
		<use xlink:href="#SVGID_1_"  style="overflow:visible;"/>
	</clipPath>
	<g class="st3">
		<g>
			<g>
				<polygon class="st0" points="31.7,32.2 2.9,31.5 31.7,30.9 				"/>
			</g>
			<g>
				<polygon class="st0" points="32.8,30.3 5.7,29.6 32.8,29 				"/>
			</g>
			<g>
				<polygon class="st0" points="35,28.5 8.4,27.9 35,27.3 				"/>
			</g>
			<g>
				<polygon class="st0" points="29.4,34.1 -0.3,33.5 29.4,32.8 				"/>
			</g>
		</g>
		<g>
			<g>
				<polygon class="st0" points="31.7,39.7 2.9,39.1 31.7,38.5 				"/>
			</g>
			<g>
				<polygon class="st0" points="32.8,37.8 5.7,37.2 32.8,36.5 				"/>
			</g>
			<g>
				<polygon class="st0" points="35,36.1 8.4,35.5 35,34.8 				"/>
			</g>
			<g>
				<polygon class="st0" points="29.4,41.7 -0.3,41 29.4,40.4 				"/>
			</g>
		</g>
		<g>
			<g>
				<polygon class="st0" points="31.7,47.3 2.9,46.7 31.7,46 				"/>
			</g>
			<g>
				<polygon class="st0" points="32.8,45.4 5.7,44.8 32.8,44.1 				"/>
			</g>
			<g>
				<polygon class="st0" points="35,43.7 8.4,43 35,42.4 				"/>
			</g>
			<g>
				<polygon class="st0" points="29.4,49.2 -0.3,48.6 29.4,47.9 				"/>
			</g>
		</g>
		<g>
			<g>
				<polygon class="st0" points="23.9,54.9 -4.8,54.2 23.9,53.6 				"/>
			</g>
			<g>
				<polygon class="st0" points="25.1,53 -2,52.3 25.1,51.7 				"/>
			</g>
			<g>
				<polygon class="st0" points="27.3,51.2 0.7,50.6 27.3,49.9 				"/>
			</g>
			<g>
				<polygon class="st0" points="21.7,56.8 -8,56.1 21.7,55.5 				"/>
			</g>
		</g>
		<g>
			<g>
				<polygon class="st0" points="20.7,62.4 -8,61.8 20.7,61.2 				"/>
			</g>
			<g>
				<polygon class="st0" points="21.9,60.5 -5.3,59.9 21.9,59.2 				"/>
			</g>
			<g>
				<polygon class="st0" points="24.1,58.8 -2.5,58.2 24.1,57.5 				"/>
			</g>
			<g>
				<polygon class="st0" points="18.5,64.4 -11.3,63.7 18.5,63.1 				"/>
			</g>
		</g>
	</g>
</g>
<g>
	<path class="st0" d="M21.2,45.1l-3.8-4.9h-0.7v4.9h-4.9V29.2h6.7c4.1,0,6.5,2.1,6.5,5.5c0,2-0.9,3.6-2.5,4.5l4.6,5.8H21.2z
		 M18.6,35.8c1.4,0,1.4-0.7,1.4-1c0-0.3,0-1-1.4-1h-1.9v2H18.6z"/>
</g>
<g>
	<path class="st2" d="M12.7,44.1V30.2h5.7c2.7,0,5.5,1,5.5,4.5c0,2.4-1.4,3.6-3,4.1l4.2,5.3h-3.4l-3.8-4.9h-2.2v4.9H12.7z
		 M15.7,36.7h2.9c1.3,0,2.3-0.6,2.3-2c0-1.4-1.1-2-2.3-2h-2.9V36.7z"/>
</g>
<g>
	<path class="st0" d="M33.8,45.3c-4.4,0-7.1-2.5-7.1-6.5v-9.7h4.9v9.5c0,1.5,0.6,2,2.2,2c1.6,0,2.2-0.6,2.2-2v-9.5h4.9v9.7
		C40.8,42.9,38.1,45.3,33.8,45.3z"/>
</g>
<g>
	<path class="st2" d="M39.9,30.2v8.7c0,4.1-3,5.5-6.1,5.5c-3.1,0-6.1-1.4-6.1-5.5v-8.7h3v8.5c0,2.2,1.3,3,3.1,3c1.9,0,3.1-0.8,3.1-3
		v-8.5H39.9z"/>
</g>
<g>
	<polygon class="st0" points="52.8,45.1 47.8,38.1 47.8,45.1 42.9,45.1 42.9,29.2 47.2,29.2 52.2,36.2 52.2,29.2 57.1,29.2 
		57.1,45.1 	"/>
</g>
<g>
	<path class="st2" d="M43.9,44.1V30.2h2.8l6.5,9.1c0-0.6-0.1-1.3-0.1-1.9v-7.2h3v13.9h-2.8L46.8,35c0,0.6,0.1,1.3,0.1,1.9v7.2H43.9z
		"/>
</g>
<g>
	<g>
		<path class="st4" d="M42.9,49.2c0-1,0.8-1.8,1.9-1.8c0.6,0,1.1,0.2,1.4,0.6l-0.4,0.4c-0.3-0.3-0.6-0.4-0.9-0.4
			c-0.7,0-1.2,0.5-1.2,1.2c0,0.7,0.5,1.2,1.2,1.2c0.4,0,0.7-0.1,0.9-0.4l0.4,0.4c-0.3,0.4-0.8,0.6-1.4,0.6
			C43.7,51,42.9,50.2,42.9,49.2z"/>
	</g>
	<g>
		<path class="st4" d="M46.9,47.4h0.6v2.9h1.8v0.5h-2.5V47.4z"/>
	</g>
	<g>
		<path class="st4" d="M49.9,49.4v-2h0.6v1.9c0,0.7,0.3,1,0.9,1s0.9-0.3,0.9-1v-1.9H53v2c0,1-0.6,1.6-1.5,1.6
			C50.5,51,49.9,50.4,49.9,49.4z"/>
	</g>
	<g>
		<path class="st4" d="M57.1,50c0,0.6-0.5,0.9-1.4,0.9H54v-3.5h1.6c0.8,0,1.3,0.4,1.3,0.9c0,0.4-0.2,0.6-0.4,0.8
			C56.8,49.2,57.1,49.5,57.1,50z M54.6,47.9v1h0.9c0.4,0,0.7-0.2,0.7-0.5c0-0.3-0.3-0.5-0.7-0.5H54.6z M56.4,49.9
			c0-0.3-0.3-0.5-0.8-0.5h-1v1h1C56.2,50.4,56.4,50.3,56.4,49.9z"/>
	</g>
</g>
</svg>
