<?xml version="1.0" encoding="utf-8"?>
<!-- Generator: Adobe Illustrator 25.2.1, SVG Export Plug-In . SVG Version: 6.00 Build 0)  -->
<svg version="1.1" id="Layer_1" xmlns="http://www.w3.org/2000/svg" xmlns:xlink="http://www.w3.org/1999/xlink" x="0px" y="0px"
	 viewBox="0 0 486.7 475.2" style="enable-background:new 0 0 486.7 475.2;" xml:space="preserve">
<style type="text/css">
	.st0{fill:#FFFFFF;}
</style>
<g>
	<g>
		<path class="st0" d="M39,393.9c0-3.2-0.8-5.8-2.5-7.7c-1.7-1.9-4.6-3.7-8.8-5.6c-8.6-3-15.1-6.4-19.4-10.2
			c-4.3-3.8-6.5-9.2-6.5-16c0-6.8,2.5-12.3,7.5-16.6c5-4.3,11.4-6.4,19.2-6.4c7.9,0,14.3,2.4,19.2,7.1c4.9,4.8,7.3,10.8,7.2,18
			l-0.1,0.3H39.1c0-3.8-0.9-6.9-2.8-9.2c-1.9-2.4-4.6-3.5-8-3.5c-3.2,0-5.7,1-7.5,2.9c-1.8,2-2.7,4.4-2.7,7.4c0,2.7,1,5,3,6.7
			c2,1.8,5.5,3.7,10.5,5.9c7.9,2.7,13.8,6,17.7,10.1c4,4.1,5.9,9.6,5.9,16.5c0,7.2-2.4,12.8-7.2,16.9c-4.8,4.1-11.1,6.1-19.1,6.1
			c-7.9,0-14.7-2.3-20.5-6.9C2.6,405.2-0.2,398.6,0,390l0.1-0.3h15.8c0,5.1,1.1,8.8,3.2,11c2.2,2.2,5.4,3.4,9.8,3.4
			c3.4,0,6-0.9,7.6-2.7C38.2,399.5,39,397.1,39,393.9z"/>
		<path class="st0" d="M116.6,332.7v56.4c0,8.8-2.6,15.7-7.8,20.5c-5.2,4.8-12,7.2-20.4,7.2c-8.4,0-15.2-2.4-20.4-7.2
			c-5.2-4.8-7.8-11.6-7.8-20.4v-56.4h16.2v56.4c0,5,1,8.8,3.1,11.2c2.1,2.4,5,3.6,8.8,3.6c3.9,0,6.9-1.1,8.9-3.4
			c2.1-2.3,3.1-6.1,3.1-11.3v-56.4H116.6z"/>
		<path class="st0" d="M140.3,385.8v29.8h-16.2v-82.9h28.8c8.3,0,14.8,2.4,19.6,7.3c4.8,4.9,7.2,11.3,7.2,19.2
			c0,8-2.4,14.4-7.2,19.3c-4.8,4.9-11.3,7.3-19.6,7.3H140.3z M140.3,372.9h12.6c3.5,0,6.1-1.3,7.9-3.8c1.8-2.5,2.7-5.8,2.7-9.7
			c0-4-0.9-7.2-2.7-9.8c-1.8-2.6-4.5-3.9-7.9-3.9h-12.6V372.9z"/>
		<path class="st0" d="M223.8,332.7l19.4,67.6h0.3l19.4-67.6h14.9v82.9h-11.4v-31.8l1-31.9l-0.3-0.1l-19.9,63.8h-7.6l-19.9-63.7
			l-0.3,0.1l1.1,31.8v31.8h-11.4v-82.9H223.8z"/>
		<path class="st0" d="M331.9,377h-30.7v29.8h35.6v8.8h-47.2v-82.9h46.9v8.8h-35.3v26.8h30.7V377z"/>
		<path class="st0" d="M343.5,415.6v-82.9h22.8c8.8,0,16,3.3,21.6,10c5.6,6.6,8.3,15.2,8.3,25.6V380c0,10.5-2.8,19-8.3,25.6
			c-5.6,6.6-12.7,9.9-21.6,9.9H343.5z M355,341.4v65.4h10.8c5.8,0,10.4-2.5,13.8-7.5c3.4-5,5-11.4,5-19.3v-11.9
			c0-7.8-1.7-14.2-5-19.2c-3.4-5-7.9-7.4-13.8-7.4H355z"/>
		<path class="st0" d="M417.4,415.6h-11.5v-82.9h11.5V415.6z"/>
		<path class="st0" d="M468.9,394.6h-26.4l-6,21h-11.7l25.5-82.9h11.2l25.3,82.9H475L468.9,394.6z M445.2,385.5h21.1L456,349.2h-0.3
			L445.2,385.5z"/>
	</g>
</g>
<g>
	<g>
		<polygon class="st0" points="330.5,138.5 330.5,99.2 398.5,138.5 		"/>
	</g>
	<g>
		<polygon class="st0" points="330.5,145.1 398.5,145.1 330.5,184.4 		"/>
	</g>
	<g>
		<polygon class="st0" points="330.5,91.5 330.5,9.1 401.8,132.7 		"/>
	</g>
	<g>
		<polygon class="st0" points="289.8,68 323.8,9.1 323.8,87.7 		"/>
	</g>
	<g>
		<polygon class="st0" points="172,0 314.7,0 243.4,41.2 		"/>
	</g>
	<g>
		<polygon class="st0" points="250,45 318,5.8 284,64.7 		"/>
	</g>
	<g>
		<polygon class="st0" points="172,283.6 243.4,242.4 314.7,283.6 		"/>
	</g>
	<g>
		<polygon class="st0" points="162.9,195.9 196.9,215.6 162.9,274.5 		"/>
	</g>
	<g>
		<polygon class="st0" points="250,238.5 284,218.9 318,277.8 		"/>
	</g>
	<g>
		<polygon class="st0" points="202.7,218.9 236.7,238.5 168.7,277.8 		"/>
	</g>
	<g>
		<polygon class="st0" points="330.5,192.1 401.8,150.9 330.5,274.5 		"/>
	</g>
	<g>
		<polygon class="st0" points="289.8,215.6 323.8,195.9 323.8,274.5 		"/>
	</g>
	<g>
		<polygon class="st0" points="156.2,9.1 156.2,91.5 84.9,132.7 		"/>
	</g>
	<g>
		<polygon class="st0" points="162.9,9.1 196.9,68 162.9,87.7 		"/>
	</g>
	<g>
		<polygon class="st0" points="168.7,5.8 236.7,45 202.7,64.7 		"/>
	</g>
	<g>
		<polygon class="st0" points="88.2,138.5 156.2,99.2 156.2,138.5 		"/>
	</g>
	<g>
		<polygon class="st0" points="88.2,145.1 156.2,145.1 156.2,184.4 		"/>
	</g>
	<g>
		<polygon class="st0" points="84.9,150.9 156.2,192.1 156.2,274.5 		"/>
	</g>
</g>
<polygon class="st0" points="202.6,126.4 202.6,118.3 243.4,94.7 284.1,118.3 284.1,118.3 314.7,100.6 314.7,100.6 243.4,59.5 
	172.1,100.6 172.1,157.1 284.1,157.1 284.1,165.3 243.4,188.8 202.6,165.3 172.1,183 243.4,224.1 314.7,182.9 314.7,126.4 "/>
<g>
	<path class="st0" d="M8.9,441c0.5,0,0.8,0.3,0.8,0.8v6.3h13.2c1.6,0,2.9,0.1,4,0.4c1.1,0.3,1.9,0.7,2.6,1.3
		c0.6,0.6,1.1,1.3,1.4,2.2c0.3,0.9,0.4,2,0.4,3.3v5.1c0,1.3-0.1,2.4-0.4,3.3c-0.3,0.9-0.7,1.6-1.4,2.2c-0.6,0.6-1.5,1-2.6,1.2
		c-1.1,0.3-2.4,0.4-4,0.4H13c-1.6,0-2.9-0.1-4-0.4c-1.1-0.3-1.9-0.7-2.6-1.2c-0.6-0.6-1.1-1.3-1.4-2.2c-0.3-0.9-0.4-2-0.4-3.3v-18.5
		c0-0.5,0.3-0.8,0.8-0.8H8.9z M9.7,452.3v7c0,0.8,0.1,1.4,0.2,1.9c0.1,0.5,0.3,0.9,0.6,1.2c0.3,0.3,0.7,0.5,1.2,0.6
		c0.5,0.1,1.1,0.2,1.9,0.2h8.9c0.8,0,1.4-0.1,1.9-0.2s0.9-0.3,1.2-0.6c0.3-0.3,0.5-0.7,0.6-1.2c0.1-0.5,0.2-1.1,0.2-1.9v-3.1
		c0-0.7-0.1-1.3-0.2-1.8c-0.1-0.5-0.3-0.9-0.6-1.2c-0.3-0.3-0.7-0.5-1.2-0.6s-1.1-0.2-1.9-0.2H9.7z"/>
	<path class="st0" d="M39.6,448.1c0.5,0,0.8,0.3,0.8,0.8V459c0,0.8,0,1.4,0.1,1.9s0.3,0.9,0.5,1.2c0.3,0.3,0.6,0.5,1.1,0.6
		c0.5,0.1,1.1,0.2,1.9,0.2h9c0.8,0,1.4-0.1,1.9-0.2c0.5-0.1,0.9-0.3,1.2-0.6c0.3-0.3,0.5-0.7,0.6-1.2c0.1-0.5,0.2-1.1,0.2-1.9v-10.2
		c0-0.5,0.3-0.8,0.8-0.8h3.5c0.5,0,0.8,0.3,0.8,0.8v11.4c0,1.3-0.1,2.4-0.4,3.3c-0.3,0.9-0.7,1.6-1.4,2.2c-0.6,0.6-1.5,1-2.6,1.2
		c-1.1,0.3-2.4,0.4-4,0.4h-9.8c-1.6,0-2.9-0.1-4-0.4c-1.1-0.3-1.9-0.7-2.6-1.2c-0.6-0.6-1.1-1.3-1.4-2.2c-0.3-0.9-0.4-2-0.4-3.3
		v-11.4c0-0.5,0.3-0.8,0.8-0.8H39.6z"/>
	<path class="st0" d="M88.5,448.1c0.4,0,0.6,0.2,0.6,0.6v2.8c0,0.4-0.2,0.6-0.6,0.6H72.7c-0.7,0-1.2,0.1-1.5,0.4
		c-0.3,0.3-0.4,0.7-0.4,1.2v0.5c0,0.5,0.1,0.8,0.4,1.1c0.3,0.3,0.8,0.4,1.5,0.4h11.9c2,0,3.4,0.4,4.2,1.2c0.8,0.8,1.3,2,1.3,3.5v2
		c0,0.8-0.1,1.5-0.3,2.1c-0.2,0.6-0.5,1.1-0.9,1.5s-1,0.7-1.7,1c-0.7,0.2-1.6,0.3-2.6,0.3h-18c-0.4,0-0.6-0.2-0.6-0.6v-2.8
		c0-0.4,0.2-0.6,0.6-0.6h16.7c0.7,0,1.2-0.1,1.5-0.4c0.3-0.3,0.4-0.7,0.4-1.3v-1c0-0.5-0.1-0.8-0.4-1.1c-0.3-0.3-0.8-0.4-1.5-0.4
		H71.3c-2,0-3.4-0.4-4.2-1.2c-0.8-0.8-1.3-2-1.3-3.5v-1.5c0-0.7,0.1-1.4,0.3-2s0.5-1.1,0.9-1.5c0.4-0.4,1-0.7,1.7-1
		c0.7-0.2,1.6-0.3,2.6-0.3H88.5z"/>
	<path class="st0" d="M98.1,440.9c0.5,0,0.8,0.3,0.8,0.8v3.3c0,0.5-0.3,0.8-0.8,0.8h-3.5c-0.5,0-0.8-0.3-0.8-0.8v-3.3
		c0-0.5,0.3-0.8,0.8-0.8H98.1z M98.1,448.1c0.5,0,0.8,0.3,0.8,0.8v17.7c0,0.5-0.3,0.8-0.8,0.8h-3.5c-0.5,0-0.8-0.3-0.8-0.8v-17.7
		c0-0.5,0.3-0.8,0.8-0.8H98.1z"/>
	<path class="st0" d="M121.7,448.1c1.6,0,2.9,0.1,4,0.4c1.1,0.3,1.9,0.7,2.6,1.3c0.6,0.6,1.1,1.3,1.4,2.2c0.3,0.9,0.4,2,0.4,3.3
		v11.4c0,0.5-0.3,0.8-0.8,0.8h-3.5c-0.5,0-0.8-0.3-0.8-0.8v-10.2c0-0.7,0-1.3-0.1-1.8c-0.1-0.5-0.3-0.9-0.5-1.2
		c-0.3-0.3-0.6-0.5-1.1-0.6c-0.5-0.1-1.1-0.2-1.8-0.2h-9.4c-0.8,0-1.4,0.1-1.9,0.2c-0.5,0.1-0.9,0.3-1.2,0.6
		c-0.3,0.3-0.5,0.7-0.6,1.2c-0.1,0.5-0.2,1.1-0.2,1.8v10.2c0,0.5-0.3,0.8-0.8,0.8H104c-0.5,0-0.8-0.3-0.8-0.8v-11.4
		c0-1.3,0.1-2.4,0.4-3.3c0.3-0.9,0.7-1.6,1.4-2.2c0.6-0.6,1.5-1,2.6-1.3c1.1-0.3,2.4-0.4,4-0.4H121.7z"/>
	<path class="st0" d="M152.4,448.1c1.2,0,2.2,0.1,3,0.3c0.8,0.2,1.4,0.5,1.9,1c0.5,0.5,0.8,1.1,1,1.8s0.3,1.6,0.3,2.7v3.3
		c0,0.8-0.2,1.3-0.5,1.6c-0.3,0.3-0.8,0.4-1.5,0.4h-17.8v0.8c0,1.1,0.3,1.9,0.8,2.4s1.6,0.7,3.1,0.7h14.7c0.4,0,0.6,0.2,0.6,0.6v3
		c0,0.4-0.2,0.6-0.6,0.6h-15.2c-1.6,0-2.9-0.1-4-0.4c-1.1-0.3-1.9-0.7-2.6-1.2c-0.6-0.6-1.1-1.3-1.4-2.2c-0.3-0.9-0.4-2-0.4-3.3
		v-5.1c0-1.3,0.1-2.4,0.4-3.3c0.3-0.9,0.7-1.6,1.4-2.2c0.6-0.6,1.5-1,2.6-1.3c1.1-0.3,2.4-0.4,4-0.4H152.4z M138.7,456h14.3
		c0.4,0,0.6-0.2,0.6-0.6V454c0-0.7-0.2-1.2-0.5-1.5c-0.3-0.3-0.9-0.5-1.7-0.5h-8.8c-1.5,0-2.6,0.2-3.1,0.7c-0.5,0.5-0.8,1.3-0.8,2.4
		V456z"/>
	<path class="st0" d="M184.5,448.1c0.4,0,0.6,0.2,0.6,0.6v2.8c0,0.4-0.2,0.6-0.6,0.6h-15.9c-0.7,0-1.2,0.1-1.5,0.4
		c-0.3,0.3-0.4,0.7-0.4,1.2v0.5c0,0.5,0.1,0.8,0.4,1.1c0.3,0.3,0.8,0.4,1.5,0.4h11.9c2,0,3.4,0.4,4.2,1.2c0.8,0.8,1.3,2,1.3,3.5v2
		c0,0.8-0.1,1.5-0.3,2.1c-0.2,0.6-0.5,1.1-0.9,1.5s-1,0.7-1.7,1c-0.7,0.2-1.6,0.3-2.6,0.3h-18c-0.4,0-0.6-0.2-0.6-0.6v-2.8
		c0-0.4,0.2-0.6,0.6-0.6h16.7c0.7,0,1.2-0.1,1.5-0.4c0.3-0.3,0.4-0.7,0.4-1.3v-1c0-0.5-0.1-0.8-0.4-1.1c-0.3-0.3-0.8-0.4-1.5-0.4
		h-11.8c-2,0-3.4-0.4-4.2-1.2c-0.8-0.8-1.3-2-1.3-3.5v-1.5c0-0.7,0.1-1.4,0.3-2s0.5-1.1,0.9-1.5c0.4-0.4,1-0.7,1.7-1
		c0.7-0.2,1.6-0.3,2.6-0.3H184.5z"/>
	<path class="st0" d="M212.1,448.1c0.4,0,0.6,0.2,0.6,0.6v2.8c0,0.4-0.2,0.6-0.6,0.6h-15.9c-0.7,0-1.2,0.1-1.5,0.4
		c-0.3,0.3-0.4,0.7-0.4,1.2v0.5c0,0.5,0.1,0.8,0.4,1.1c0.3,0.3,0.8,0.4,1.5,0.4h11.9c2,0,3.4,0.4,4.2,1.2c0.8,0.8,1.3,2,1.3,3.5v2
		c0,0.8-0.1,1.5-0.3,2.1c-0.2,0.6-0.5,1.1-0.9,1.5s-1,0.7-1.7,1c-0.7,0.2-1.6,0.3-2.6,0.3h-18c-0.4,0-0.6-0.2-0.6-0.6v-2.8
		c0-0.4,0.2-0.6,0.6-0.6h16.7c0.7,0,1.2-0.1,1.5-0.4c0.3-0.3,0.4-0.7,0.4-1.3v-1c0-0.5-0.1-0.8-0.4-1.1c-0.3-0.3-0.8-0.4-1.5-0.4
		h-11.8c-2,0-3.4-0.4-4.2-1.2c-0.8-0.8-1.3-2-1.3-3.5v-1.5c0-0.7,0.1-1.4,0.3-2s0.5-1.1,0.9-1.5c0.4-0.4,1-0.7,1.7-1
		c0.7-0.2,1.6-0.3,2.6-0.3H212.1z"/>
	<path class="st0" d="M233.4,440.9c0.5,0,0.8,0.3,0.8,0.8v3.3c0,0.5-0.3,0.8-0.8,0.8H230c-0.5,0-0.8-0.3-0.8-0.8v-3.3
		c0-0.5,0.3-0.8,0.8-0.8H233.4z M233.4,448.1c0.5,0,0.8,0.3,0.8,0.8v17.7c0,0.5-0.3,0.8-0.8,0.8H230c-0.5,0-0.8-0.3-0.8-0.8v-17.7
		c0-0.5,0.3-0.8,0.8-0.8H233.4z"/>
	<path class="st0" d="M257.1,448.1c1.6,0,2.9,0.1,4,0.4c1.1,0.3,1.9,0.7,2.6,1.3c0.6,0.6,1.1,1.3,1.4,2.2c0.3,0.9,0.4,2,0.4,3.3
		v11.4c0,0.5-0.3,0.8-0.8,0.8h-3.5c-0.5,0-0.8-0.3-0.8-0.8v-10.2c0-0.7,0-1.3-0.1-1.8c-0.1-0.5-0.3-0.9-0.5-1.2
		c-0.3-0.3-0.6-0.5-1.1-0.6c-0.5-0.1-1.1-0.2-1.8-0.2h-9.4c-0.8,0-1.4,0.1-1.9,0.2c-0.5,0.1-0.9,0.3-1.2,0.6
		c-0.3,0.3-0.5,0.7-0.6,1.2c-0.1,0.5-0.2,1.1-0.2,1.8v10.2c0,0.5-0.3,0.8-0.8,0.8h-3.5c-0.5,0-0.8-0.3-0.8-0.8v-11.4
		c0-1.3,0.1-2.4,0.4-3.3c0.3-0.9,0.7-1.6,1.4-2.2c0.6-0.6,1.5-1,2.6-1.3c1.1-0.3,2.4-0.4,4-0.4H257.1z"/>
	<path class="st0" d="M272.2,448.1v-4.6c0-0.5,0.3-0.8,0.8-0.8h3.5c0.5,0,0.8,0.3,0.8,0.8v4.6h6.2c0.4,0,0.6,0.2,0.6,0.6v2.9
		c0,0.4-0.2,0.6-0.6,0.6h-6.2v8.2c0,1,0.2,1.7,0.6,2.2s1.2,0.7,2.4,0.7h3.4c0.4,0,0.6,0.2,0.6,0.6v2.9c0,0.4-0.2,0.6-0.6,0.6h-4.3
		c-1.4,0-2.6-0.1-3.5-0.4c-0.9-0.3-1.6-0.7-2.2-1.2s-0.9-1.3-1.1-2.2c-0.2-0.9-0.3-2-0.3-3.2v-8.2h-3.3c-0.4,0-0.6-0.2-0.6-0.6v-2.9
		c0-0.4,0.2-0.6,0.6-0.6H272.2z"/>
	<path class="st0" d="M305,448.1c1.2,0,2.2,0.1,3,0.3c0.8,0.2,1.4,0.5,1.9,1s0.8,1.1,1,1.8c0.2,0.7,0.3,1.6,0.3,2.7v3.3
		c0,0.8-0.2,1.3-0.5,1.6c-0.3,0.3-0.8,0.4-1.5,0.4h-17.8v0.8c0,1.1,0.3,1.9,0.8,2.4s1.6,0.7,3.1,0.7h14.7c0.4,0,0.6,0.2,0.6,0.6v3
		c0,0.4-0.2,0.6-0.6,0.6h-15.2c-1.6,0-2.9-0.1-4-0.4c-1.1-0.3-1.9-0.7-2.6-1.2c-0.6-0.6-1.1-1.3-1.4-2.2c-0.3-0.9-0.4-2-0.4-3.3
		v-5.1c0-1.3,0.1-2.4,0.4-3.3c0.3-0.9,0.7-1.6,1.4-2.2c0.6-0.6,1.5-1,2.6-1.3c1.1-0.3,2.4-0.4,4-0.4H305z M291.3,456h14.3
		c0.4,0,0.6-0.2,0.6-0.6V454c0-0.7-0.2-1.2-0.5-1.5c-0.3-0.3-0.9-0.5-1.7-0.5h-8.8c-1.5,0-2.6,0.2-3.1,0.7c-0.5,0.5-0.8,1.3-0.8,2.4
		V456z"/>
	<path class="st0" d="M319.1,441c0.5,0,0.8,0.3,0.8,0.8v24.9c0,0.5-0.3,0.8-0.8,0.8h-3.5c-0.5,0-0.8-0.3-0.8-0.8v-24.9
		c0-0.5,0.3-0.8,0.8-0.8H319.1z"/>
	<path class="st0" d="M328.6,441c0.5,0,0.8,0.3,0.8,0.8v24.9c0,0.5-0.3,0.8-0.8,0.8h-3.5c-0.5,0-0.8-0.3-0.8-0.8v-24.9
		c0-0.5,0.3-0.8,0.8-0.8H328.6z"/>
	<path class="st0" d="M338.1,440.9c0.5,0,0.8,0.3,0.8,0.8v3.3c0,0.5-0.3,0.8-0.8,0.8h-3.5c-0.5,0-0.8-0.3-0.8-0.8v-3.3
		c0-0.5,0.3-0.8,0.8-0.8H338.1z M338.1,448.1c0.5,0,0.8,0.3,0.8,0.8v17.7c0,0.5-0.3,0.8-0.8,0.8h-3.5c-0.5,0-0.8-0.3-0.8-0.8v-17.7
		c0-0.5,0.3-0.8,0.8-0.8H338.1z"/>
	<path class="st0" d="M361.3,448.1c1.6,0,2.9,0.1,4,0.4c1.1,0.3,1.9,0.7,2.6,1.2s1.1,1.3,1.4,2.2c0.3,0.9,0.4,2,0.4,3.3V468
		c0,1.3-0.1,2.4-0.4,3.3c-0.3,0.9-0.7,1.6-1.4,2.2s-1.5,1-2.6,1.3s-2.4,0.4-4,0.4h-16.6c-0.4,0-0.6-0.2-0.6-0.6v-3
		c0-0.4,0.2-0.6,0.6-0.6h16.1c0.8,0,1.4-0.1,1.9-0.2c0.5-0.1,0.9-0.3,1.2-0.6c0.3-0.3,0.5-0.7,0.6-1.2c0.1-0.5,0.2-1.1,0.2-1.9v-0.9
		h-13.2c-1.6,0-2.9-0.1-4-0.4c-1.1-0.3-1.9-0.7-2.6-1.3s-1.1-1.3-1.4-2.2c-0.3-0.9-0.4-2-0.4-3.3v-3.7c0-1.3,0.1-2.4,0.4-3.3
		c0.3-0.9,0.7-1.6,1.4-2.2c0.6-0.6,1.5-1,2.6-1.3c1.1-0.3,2.4-0.4,4-0.4H361.3z M348.1,458.9c0,0.6,0.1,1.1,0.2,1.5
		c0.1,0.4,0.3,0.8,0.6,1c0.3,0.3,0.7,0.5,1.2,0.6c0.5,0.1,1.1,0.2,1.9,0.2h12.7v-6.6c0-1.2-0.3-2.1-0.8-2.6s-1.6-0.8-3.1-0.8h-8.9
		c-0.8,0-1.4,0.1-1.9,0.2s-0.9,0.3-1.2,0.6c-0.3,0.3-0.5,0.6-0.6,1c-0.1,0.4-0.2,0.9-0.2,1.5V458.9z"/>
	<path class="st0" d="M392,448.1c1.2,0,2.2,0.1,3,0.3c0.8,0.2,1.4,0.5,1.9,1s0.8,1.1,1,1.8c0.2,0.7,0.3,1.6,0.3,2.7v3.3
		c0,0.8-0.2,1.3-0.5,1.6c-0.3,0.3-0.8,0.4-1.5,0.4h-17.8v0.8c0,1.1,0.3,1.9,0.8,2.4s1.6,0.7,3.1,0.7h14.7c0.4,0,0.6,0.2,0.6,0.6v3
		c0,0.4-0.2,0.6-0.6,0.6h-15.2c-1.6,0-2.9-0.1-4-0.4c-1.1-0.3-1.9-0.7-2.6-1.2c-0.6-0.6-1.1-1.3-1.4-2.2c-0.3-0.9-0.4-2-0.4-3.3
		v-5.1c0-1.3,0.1-2.4,0.4-3.3c0.3-0.9,0.7-1.6,1.4-2.2c0.6-0.6,1.5-1,2.6-1.3c1.1-0.3,2.4-0.4,4-0.4H392z M378.3,456h14.3
		c0.4,0,0.6-0.2,0.6-0.6V454c0-0.7-0.2-1.2-0.5-1.5c-0.3-0.3-0.9-0.5-1.7-0.5h-8.8c-1.5,0-2.6,0.2-3.1,0.7c-0.5,0.5-0.8,1.3-0.8,2.4
		V456z"/>
	<path class="st0" d="M420.2,448.1c1.6,0,2.9,0.1,4,0.4c1.1,0.3,1.9,0.7,2.6,1.3c0.6,0.6,1.1,1.3,1.4,2.2c0.3,0.9,0.4,2,0.4,3.3
		v11.4c0,0.5-0.3,0.8-0.8,0.8h-3.5c-0.5,0-0.8-0.3-0.8-0.8v-10.2c0-0.7,0-1.3-0.1-1.8c-0.1-0.5-0.3-0.9-0.5-1.2
		c-0.3-0.3-0.6-0.5-1.1-0.6c-0.5-0.1-1.1-0.2-1.8-0.2h-9.4c-0.8,0-1.4,0.1-1.9,0.2c-0.5,0.1-0.9,0.3-1.2,0.6
		c-0.3,0.3-0.5,0.7-0.6,1.2c-0.1,0.5-0.2,1.1-0.2,1.8v10.2c0,0.5-0.3,0.8-0.8,0.8h-3.5c-0.5,0-0.8-0.3-0.8-0.8v-11.4
		c0-1.3,0.1-2.4,0.4-3.3c0.3-0.9,0.7-1.6,1.4-2.2c0.6-0.6,1.5-1,2.6-1.3c1.1-0.3,2.4-0.4,4-0.4H420.2z"/>
	<path class="st0" d="M454.7,448.1c0.4,0,0.6,0.2,0.6,0.6v3c0,0.4-0.2,0.6-0.6,0.6H441c-0.8,0-1.4,0.1-1.9,0.2s-0.9,0.3-1.2,0.6
		c-0.3,0.3-0.5,0.7-0.6,1.2c-0.1,0.5-0.2,1.1-0.2,1.8v3.1c0,0.8,0.1,1.4,0.2,1.9c0.1,0.5,0.3,0.9,0.6,1.2c0.3,0.3,0.7,0.5,1.2,0.6
		s1.1,0.2,1.9,0.2h13.7c0.4,0,0.6,0.2,0.6,0.6v3c0,0.4-0.2,0.6-0.6,0.6h-14.2c-1.6,0-2.9-0.1-4-0.4c-1.1-0.3-1.9-0.7-2.6-1.2
		c-0.6-0.6-1.1-1.3-1.4-2.2c-0.3-0.9-0.4-2-0.4-3.3v-5.1c0-1.3,0.1-2.4,0.4-3.3c0.3-0.9,0.7-1.6,1.4-2.2c0.6-0.6,1.5-1,2.6-1.3
		c1.1-0.3,2.4-0.4,4-0.4H454.7z"/>
	<path class="st0" d="M476.6,448.1c1.2,0,2.2,0.1,3,0.3c0.8,0.2,1.4,0.5,1.9,1s0.8,1.1,1,1.8c0.2,0.7,0.3,1.6,0.3,2.7v3.3
		c0,0.8-0.2,1.3-0.5,1.6c-0.3,0.3-0.8,0.4-1.5,0.4h-17.8v0.8c0,1.1,0.3,1.9,0.8,2.4s1.6,0.7,3.1,0.7h14.7c0.4,0,0.6,0.2,0.6,0.6v3
		c0,0.4-0.2,0.6-0.6,0.6h-15.2c-1.6,0-2.9-0.1-4-0.4c-1.1-0.3-1.9-0.7-2.6-1.2c-0.6-0.6-1.1-1.3-1.4-2.2c-0.3-0.9-0.4-2-0.4-3.3
		v-5.1c0-1.3,0.1-2.4,0.4-3.3c0.3-0.9,0.7-1.6,1.4-2.2c0.6-0.6,1.5-1,2.6-1.3c1.1-0.3,2.4-0.4,4-0.4H476.6z M462.9,456h14.3
		c0.4,0,0.6-0.2,0.6-0.6V454c0-0.7-0.2-1.2-0.5-1.5c-0.3-0.3-0.9-0.5-1.7-0.5h-8.8c-1.5,0-2.6,0.2-3.1,0.7c-0.5,0.5-0.8,1.3-0.8,2.4
		V456z"/>
</g>
</svg>
